<svg width="55" height="54" viewBox="0 0 55 54" fill="none" xmlns="http://www.w3.org/2000/svg">
<g id="Frame">
<path id="Vector" d="M10.5841 16.6882C8.44154 18.2035 6.7045 19.8238 5.37345 21.2519C2.36412 24.4805 2.36413 29.3055 5.37345 32.534C9.27633 36.7215 16.6693 42.5613 27.5397 42.5613C30.4674 42.5613 33.1428 42.1378 35.5658 41.437L31.8088 37.7151C30.4625 37.9524 29.0395 38.0846 27.5397 38.0846C18.4273 38.0846 12.1494 33.2051 8.69333 29.4971C7.28256 27.9835 7.28256 25.8025 8.69333 24.2889C10.0012 22.8857 11.7132 21.3147 13.83 19.9039L10.5841 16.6882Z" fill="#0F0F0F"/>
<path id="Vector_2" d="M19.7063 25.7253C19.6489 26.1063 19.6191 26.496 19.6191 26.8928C19.6191 31.2195 23.1596 34.727 27.527 34.727C27.9274 34.727 28.321 34.6974 28.7055 34.6406L19.7063 25.7253Z" fill="#0F0F0F"/>
<path id="Vector_3" d="M35.3709 27.8937L26.5168 19.1221C26.8476 19.0803 27.1847 19.0588 27.527 19.0588C31.8944 19.0588 35.4349 22.5663 35.4349 26.893C35.4349 27.2321 35.4132 27.566 35.3709 27.8937Z" fill="#0F0F0F"/>
<path id="Vector_4" d="M41.3488 33.8158C43.4198 32.4223 45.0987 30.8785 46.3861 29.4972C47.7969 27.9837 47.7969 25.8026 46.3861 24.2891C42.9301 20.5811 36.6522 15.7015 27.5398 15.7015C26.0925 15.7015 24.7167 15.8246 23.4123 16.0465L19.6428 12.3123C22.0316 11.6336 24.664 11.2249 27.5398 11.2249C38.4102 11.2249 45.8032 17.0648 49.7061 21.2521C52.7153 24.4807 52.7153 29.3056 49.7061 32.5342C48.3952 33.9407 46.6905 35.5338 44.5924 37.0292L41.3488 33.8158Z" fill="#0F0F0F"/>
<path id="Vector_5" d="M4.96353 7.69263C4.08117 6.81853 4.08117 5.40128 4.96353 4.52718C5.84587 3.65305 7.27648 3.65305 8.1588 4.52718L50.1346 46.1116C51.0172 46.9856 51.0172 48.403 50.1346 49.277C49.2523 50.1509 47.8216 50.1509 46.9393 49.277L4.96353 7.69263Z" fill="#0F0F0F"/>
</g>
</svg>
