<svg xmlns="http://www.w3.org/2000/svg" version="1.1" xmlns:xlink="http://www.w3.org/1999/xlink" xmlns:svgjs="http://svgjs.dev/svgjs" viewBox="0 0 8.630622432754405 7.891698525027007"><g transform="matrix(1,0,0,1,4.315311216377203,5.962289907780859)"><g transform="matrix(1,0,0,1,0,0)"><path d=" M -1.5382416643581962 0.06424193802905653 L -1.6635426120848784 0.182070934879557 L -1.7169766920519658 0.12524841207327087 L -2.032414543015067 0.4218760611213331 L -1.9789804630479797 0.4786985839276192 L -2.1042814107746617 0.5965275807781196 L -2.3721803044922307 0.3131000190539594 L -2.246150862883417 0.19458596989618854 L -2.203677619832655 0.23975259058836473 L -2.110430402919775 0.1520658952577597 L -2.238535184379331 0.015837539299099368 L -2.3317824012922106 0.10352423462970439 L -2.2893091582414486 0.14869085532188053 L -2.415338599850263 0.2672049044796514 L -2.681780505803568 -0.017592761859049677 L -2.556479558076886 -0.1354217587095501 L -2.5030454781097986 -0.07859923590326401 L -2.187607627146697 -0.3752268849513262 L -2.2410417071137845 -0.43204940775761225 L -2.1157407593871023 -0.5498784046081128 L -1.8485703595516654 -0.26576579057668215 L -1.9738713072783476 -0.14793679372618168 L -2.0163445503291095 -0.19310341441835782 L -2.116876706063308 -0.09856619601504932 L -1.9887719246037523 0.03766215994361102 L -1.8882397688695538 -0.05687505845969748 L -1.9307130119203155 -0.10204167915187368 L -1.8054120641936333 -0.21987067600237414 L -1.5382416643581962 0.06424193802905653 M -2.150148666597711 -0.633958925387135 L -2.306411827543025 -0.5620852547463577 L -2.345691624288566 -0.6474848892164712 L -2.7390750469008966 -0.46654710208009564 L -2.699795250155356 -0.3811474676099823 L -2.8560584111006695 -0.309273796969205 L -3.130181247963169 -0.9052542247606346 L -2.849452662311413 -1.0343761098071473 L -2.7972188900434065 -0.9208127660968901 L -2.9020444163770778 -0.820864734456098 L -2.8435425914369103 -0.69367378950061 L -2.728162234227289 -0.7467433021249048 L -2.780396006495296 -0.860306645835162 L -2.6641071425359923 -0.913794028637601 L -2.6118733702679857 -0.8002306849273438 L -2.4501591688245794 -0.8746115766369855 L -2.508660993764747 -1.0018025215924735 L -2.6727534653369647 -0.9780609805026256 L -2.7249872376049717 -1.0916243242128827 L -2.4242715034602105 -1.2299393531785647 L -2.150148666597711 -0.633958925387135 M -2.441289136684147 -1.2533066973578635 L -2.612079199580949 -1.232941177091826 L -2.6211963220256287 -1.3093995192026038 L -3.0670165368510025 -1.3911878805571227 L -3.054939309716492 -1.2899054013973912 L -3.2257293726132943 -1.2695398811313539 L -3.2830369994084228 -1.7501351743990992 L -2.7027768072773717 -1.9935527362717702 L -2.7118939297220512 -2.070011078382548 L -2.541103866825249 -2.0903765986485854 L -2.489361236847003 -1.6564506830328731 L -2.660151299743805 -1.6360851627668356 L -2.667610763562179 -1.6986419881301993 L -2.7475404106252475 -1.667962165438839 L -2.726701273608837 -1.4932002406142044 L -2.6416802464792593 -1.481182547581364 L -2.6526918359254306 -1.573528337403472 L -2.481901773028629 -1.5938938576695096 L -2.441289136684147 -1.2533066973578635 M -2.8468313051697303 -1.5040526835271557 L -2.8619870411816652 -1.631152265217799 L -3.0915637871948904 -1.5463730360989931 L -2.8468313051697303 -1.5040526835271557 M -2.6950307433777128 -2.1988543155929015 L -2.6775649390180565 -2.2748736925837068 L -3.0995699420567586 -2.3718312988366703 L -3.117035746416415 -2.295811921845865 L -3.2846682187551144 -2.334326259664594 L -3.1729318549670573 -2.8206553509262857 Q -3.1458374661527184 -2.9385828460017662 -3.085318231267464 -2.98316335978193 Q -3.024798996382209 -3.0277438735620934 -2.9146683604852726 -3.002440849297463 Q -2.8405981982891033 -2.985422886075234 -2.81015591916939 -2.934821328371963 Q -2.7797136400496765 -2.884219770668692 -2.783534940846881 -2.8050655057158966 Q -2.7571398196664347 -2.870824897272309 -2.709752075047617 -2.891745022987556 Q -2.662364330428799 -2.9126651487028026 -2.6019386717950823 -2.898782073442563 L -2.540538405764047 -2.88467507761361 L -2.516131063774271 -2.990907283921274 L -2.3455747692436173 -2.951721184396404 L -2.3807302985316436 -2.798707823017475 Q -2.397748261753873 -2.7246376608213057 -2.4148837144945996 -2.6947148223969464 Q -2.432019167235327 -2.664791983972587 -2.4797951100671245 -2.657812780111631 Q -2.5275710528989226 -2.650833576250675 -2.6299048296173146 -2.674345235965597 Q -2.688381273456396 -2.6877804700884096 -2.721011339068532 -2.675269322333401 Q -2.753641404680669 -2.662758174578392 -2.765285274253773 -2.6120785899178554 L -2.7784965878078722 -2.554576753476092 L -2.621584796839671 -2.5185255419132115 L -2.6041189924800148 -2.5945449189040173 L -2.4364865201413153 -2.556030581085288 L -2.5273982710390133 -2.1603399777741723 L -2.6950307433777128 -2.1988543155929015 M -2.871675330806365 -2.6447306322236024 Q -2.8598075406645473 -2.6963848242814574 -2.8725031464270376 -2.725979107417283 Q -2.885198752189528 -2.755573390553109 -2.931979907260793 -2.7663215778513592 Q -2.9660911661669234 -2.774158797756333 -2.9915172091841926 -2.7528101131016762 Q -3.016943252201462 -2.7314614284470196 -3.0263479160874307 -2.690527917759663 L -3.043589799878373 -2.6154831481661756 L -2.886678008910172 -2.579431936603295 L -2.871675330806365 -2.6447306322236024 M -2.2443226601776125 -3.1017243605158504 L -2.3935897399664467 -3.194973161533953 L -2.3512039213218547 -3.2628218341652415 L -2.7150424283071386 -3.490115786646867 L -2.7516001968880994 -3.4315963065023807 L -2.6490799476248967 -3.3427897837069755 L -2.721665662053761 -3.2265989318258943 L -2.981186834868439 -3.388724688141459 L -2.593886417003478 -4.008691934309857 L -2.3343652441888 -3.846566177994292 L -2.4069509586176636 -3.7303753261132107 L -2.5317237626692775 -3.783561295777189 L -2.5693411767163528 -3.7233455988169206 L -2.205502669731069 -3.496051646335295 L -2.163116851086477 -3.5639003189665837 L -2.013849771297642 -3.4706515179484807 L -2.2443226601776125 -3.1017243605158504 M -1.582358782826663 -3.952571039699425 Q -1.6884344159820996 -3.932918812073193 -1.7897835948713026 -3.976027325599924 Q -1.8911327737605055 -4.019135839126655 -1.9711304702770136 -4.135245134844323 Q -2.03467473985041 -4.22747379527254 -2.0468783762979115 -4.327144860569632 Q -2.059082012745413 -4.426815925866725 -2.0148565588664775 -4.51861249023164 Q -1.970631104987542 -4.610409054596556 -1.8718146831001656 -4.678492200568053 Q -1.8298177037980308 -4.7074275376059385 -1.7806460226971181 -4.720661802893826 Q -1.7314743415962057 -4.733896068181712 -1.6896943113469898 -4.722607619556033 L -1.7060214850163213 -4.774505821836762 L -1.5668550241915997 -4.8703895857466195 L -1.4040228334097713 -4.6340536433993105 L -1.5283668309513865 -4.548382351385178 Q -1.5758951757725814 -4.590927109447219 -1.629176219433076 -4.592469959552869 Q -1.6824572630935701 -4.594012809658519 -1.7211603616661257 -4.567346910819683 Q -1.7853910358929204 -4.523092865938211 -1.7905194348554232 -4.450340206027515 Q -1.795647833817926 -4.3775875461168186 -1.7389118788416793 -4.295240527877338 Q -1.68160856431567 -4.2120700394554635 -1.611929231996562 -4.190251683707073 Q -1.5422498996774539 -4.168433327958683 -1.47472534472108 -4.2149568110392055 Q -1.4574324708907893 -4.226871361584218 -1.4424090352595482 -4.242079792858808 Q -1.4273855996283071 -4.2572882241334 -1.4192336052311059 -4.268369514101088 Q -1.4110816108339046 -4.279450804068777 -1.408355089654088 -4.282543712450222 L -1.447502898587698 -4.339363155035463 L -1.5249090957328095 -4.286031357357791 L -1.6071762304483674 -4.405434533805037 L -1.3494300633587941 -4.58301807288069 L -1.151421580491693 -4.295626979224903 Q -1.1904874621808044 -4.220136205696926 -1.2493913473217455 -4.154050410587064 Q -1.3082952324626866 -4.0879646154772 -1.378290197966245 -4.0397390537473905 Q -1.4762831496712265 -3.972223267325657 -1.582358782826663 -3.952571039699425 M -1.0538734474611622 -4.452671561451229 L -0.9785427161958439 -4.472902254149019 L -1.0908489974540863 -4.891084390532132 L -1.1661797287194045 -4.870853697834343 L -1.2107909997965816 -5.036967618060428 L -0.7288674754197377 -5.166392177755262 Q -0.6120082640978979 -5.197775688222347 -0.544249858657964 -5.165236504270723 Q -0.4764914532180302 -5.1326973203191 -0.44718288559174524 -5.023564337844985 Q -0.42747092860415536 -4.950165163791598 -0.4578824372985997 -4.899545107105264 Q -0.488293945993044 -4.848925050418929 -0.559993527286964 -4.815173457237621 Q -0.48953597846327224 -4.822705642428989 -0.4488330756916936 -4.790666233789512 Q -0.4081301729201149 -4.758626825150035 -0.39204936590392314 -4.698748551580167 L -0.37570919103263156 -4.637904499404333 L -0.27043932298237905 -4.666175595610218 L -0.22504994833990233 -4.497164339566234 L -0.3766771894765045 -4.456443586315555 Q -0.45007636352989167 -4.436731629327966 -0.4845407360777557 -4.4378302761693265 Q -0.5190051086256199 -4.438928923010687 -0.5475777877095122 -4.477850022814892 Q -0.5761504667934045 -4.516771122619097 -0.6033840915788906 -4.618177876245487 Q -0.6189461628848826 -4.676124592603425 -0.6453005134991083 -4.69907449900198 Q -0.671654864113334 -4.722024405400536 -0.7218753516235461 -4.708537276935343 L -0.7788562893755177 -4.6932345734844505 L -0.7370980647044392 -4.5377442179239855 L -0.6617673334391208 -4.557974910621775 L -0.6171560623619436 -4.3918609903956884 L -1.009262176383985 -4.2865576412251425 L -1.0538734474611622 -4.452671561451229 M -0.7429389546919064 -4.817813645038325 Q -0.6917526885757286 -4.831560141358618 -0.6715704340675199 -4.856653499104562 Q -0.6513881795593114 -4.881746856850505 -0.663837836604105 -4.928104229936855 Q -0.6729157115326003 -4.961906481145651 -0.7036962016926865 -4.974348805104817 Q -0.7344766918527728 -4.986791129063983 -0.7750393933033288 -4.975897679149789 L -0.8494043459626814 -4.955926354307099 L -0.8076461212916028 -4.800435998746634 L -0.7429389546919064 -4.817813645038325 M -0.17612344448488315 -4.481313816946924 L -0.16717571343109122 -4.6530809212160165 L -0.07330299365612253 -4.648190882151734 L -0.050777600945123125 -5.080604580689623 L -0.14465032072009182 -5.085494619753904 L -0.1357025896662999 -5.257261724022996 L 0.5194091568483753 -5.22313549395737 L 0.5033344539668537 -4.914553893846038 L 0.3785037095852464 -4.9210566053676885 L 0.3386943215254917 -5.060316120742071 L 0.19888388781809146 -5.06759915764632 L 0.19227713291209397 -4.940771121354607 L 0.31710787729370127 -4.934268409832956 L 0.31044910069553056 -4.80644172758619 L 0.1856183563139232 -4.8129444391078415 L 0.17635849510709206 -4.635185459108432 L 0.3161689288144922 -4.627902422204183 L 0.3713767377575168 -4.784242109525447 L 0.49620748213912413 -4.777739398003796 L 0.47898830202979203 -4.4471875868813 L -0.17612344448488315 -4.481313816946924 M 0.5329922195497873 -4.430602397041479 L 0.5894360819183591 -4.593077288642975 L 0.678230499421502 -4.56223006153457 L 0.8203246413144766 -4.971251154926707 L 0.7315302238113337 -5.002098382035112 L 0.7879740861799056 -5.1645732736366075 L 1.407645765776307 -4.949299007858799 L 1.3062437107071867 -4.657410975853786 L 1.1881660278572626 -4.698431224668155 L 1.1887270118062396 -4.8432679786258745 L 1.0564800070143248 -4.889210657297968 L 1.0148034342189258 -4.769243731522446 L 1.1328811170688498 -4.728223482708076 L 1.0908763822829357 -4.607311935469754 L 0.9727986994330118 -4.648332184284123 L 0.9143858651213501 -4.480189563905832 L 1.0466328699132652 -4.434246885233738 L 1.143207835156714 -4.569018084264639 L 1.261285518006638 -4.52799783545027 L 1.1526638991461886 -4.215328131263671 L 0.5329922195497873 -4.430602397041479 M 1.202635778543375 -4.19980406113785 L 1.3093416713757466 -4.338508251539028 L 1.3719567058997073 -4.290338162774701 L 1.634758076246863 -4.63194676884846 L 1.5737282324703443 -4.678897361694704 L 1.6786048814255898 -4.815223765974719 L 1.963146620591436 -4.596324248678596 L 1.8740437393281826 -4.081976431972248 L 2.0502608994913567 -4.311036494977623 L 1.988438460341117 -4.358596835782909 L 2.093315109296362 -4.494923240062924 L 2.3398122705235993 -4.305291624800824 L 2.2349356215683542 -4.168965220520809 L 2.173905777791836 -4.215915813367052 L 1.8050082625713504 -3.736395612265835 L 1.5704000319499283 -3.9168810081423038 L 1.648892375049444 -4.397756202007352 L 1.4940163934527444 -4.196436977082213 L 1.555838832602984 -4.148876636276928 L 1.449132939770612 -4.010172445875749 L 1.202635778543375 -4.19980406113785 M 2.0365905202187347 -3.456196851498399 L 2.186573915649203 -3.540392938670832 L 2.232588056313207 -3.458425269075111 L 2.610162534344559 -3.6703840234103633 L 2.564148393680555 -3.752351693006084 L 2.7141317891110233 -3.836547780178517 L 3.035251749489604 -3.2645180859785925 L 2.765804835605798 -3.113258836349048 L 2.704615818765367 -3.222258396981655 L 2.8010722668867034 -3.330305394236628 L 2.7325405680254207 -3.4523849021451483 L 2.6217970144226914 -3.3902168610352703 L 2.6829860312631224 -3.281217300402663 L 2.5713704811753324 -3.218559747158062 L 2.5101814643349014 -3.3275593077906693 L 2.3549660899940683 -3.240426147809896 L 2.4234977888553506 -3.1183466399013757 L 2.5851523003120294 -3.1551952345245433 L 2.6463413171524603 -3.0461956738919356 L 2.3577104805973157 -2.884167157298475 L 2.0365905202187347 -3.456196851498399 M 2.428251659520793 -2.6074344521956014 L 2.9870072904961225 -2.8986270771938343 L 2.9711275463321174 -2.9780552442712995 L 3.139789827039822 -3.0117751948417792 L 3.2225213336720446 -2.597964250314737 L 3.0538590529643406 -2.564244299744258 L 3.04288046440651 -2.6191576004397894 L 2.715943081069809 -2.453855007063427 L 3.078952969667953 -2.438728183868757 L 3.066406011316147 -2.5014862418065076 L 3.2350682920238514 -2.535206192376987 L 3.3015279620435756 -2.2027846042379653 L 3.132865681335871 -2.1690646536674856 L 3.1156136136021373 -2.2553569833318923 L 2.4843208796554275 -2.3269843807862793 L 2.428251659520793 -2.6074344521956014 M 2.5265820127658225 -1.9732968494001744 L 2.6974084760680594 -1.9532389473251948 L 2.6864465993526636 -1.859880298776298 L 3.116492288944923 -1.809385696459634 L 3.1274541656603185 -1.902744345008531 L 3.298280628962556 -1.8826864429335515 L 3.2217807233742617 -1.231162257315717 L 2.9148889956975683 -1.2671965116248374 L 2.9294659594148498 -1.391343650652626 L 3.071012162147004 -1.4220466226929338 L 3.0873383615103593 -1.561091418404057 L 2.9612048682581262 -1.575901613540815 L 2.9466279045408448 -1.4517544745130266 L 2.819501234176389 -1.466681285359523 L 2.834078197893671 -1.5908284243873116 L 2.6572926719181003 -1.6115860207207207 L 2.6409664725547444 -1.4725412250095977 L 2.793400695040394 -1.4073200028867667 L 2.778823731323112 -1.283172863858978 L 2.450082107177528 -1.3217726637823402 L 2.5265820127658225 -1.9732968494001744 M 2.4457058988257723 -1.2696283037400458 L 2.6041663744775008 -1.195363388361194 L 2.570641069820762 -1.1238298022098425 L 2.9609065841401616 -0.9409259249053562 L 2.993583146906856 -1.0106485341921168 L 3.149327157261698 -0.937656731648331 L 2.9969779879987963 -0.6125863844542139 L 2.475520192637885 -0.588612072006554 L 2.7372063495713106 -0.46596886889519307 L 2.7703072832830276 -0.5365969666142492 L 2.926051293637869 -0.4636051640704635 L 2.794071929736024 -0.18199826162653476 L 2.6383279193811826 -0.25499006417032066 L 2.671004482147877 -0.3247126734570811 L 2.1231839806090447 -0.581457095195397 L 2.24879778033556 -0.8494816711548918 L 2.7352820060904524 -0.876594363600731 L 2.5052879442873723 -0.9843845836363215 L 2.472187010575656 -0.9137564859172654 L 2.3137265349239273 -0.9880214012961172 L 2.4457058988257723 -1.2696283037400458 M 1.9422101523919875 -0.3588469285710637 L 2.067603451297841 -0.23534583307184465 L 2.011466589707287 -0.1783488790237293 L 2.3171127557903053 0.12268504125561719 L 2.3655307989121583 0.07352516838911771 L 2.2847968270490857 -0.03546577521269073 L 2.3809312025229095 -0.1330730590200882 L 2.5989445517569507 0.08165043656378135 L 2.085993978973262 0.602460104178435 L 1.8679806297392212 0.3877366085945655 L 1.9641150052130452 0.2901293247871679 L 2.0743208294111586 0.36919686751371583 L 2.1241422940727754 0.3186120707960136 L 1.8184961279897571 0.017578150516667113 L 1.7623592663992032 0.07457510456478234 L 1.6369659674933494 -0.048925990934436725 L 1.9422101523919875 -0.3588469285710637" fill="#3f170e" fill-rule="nonzero"></path></g><g transform="matrix(1,0,0,1,0,0)"><path d=" M -3.627707741477273 1.2174798582553086 Q -3.627707741477273 1.2109102559825813 -3.624689275568182 1.2060274434825813 Q -3.6216708096590913 1.2011446309825813 -3.614923650568182 1.2011446309825813 L -3.590243252840909 1.2011446309825813 L -3.472700639204546 0.9356971878007632 Q -3.4700372869318183 0.9294826991643994 -3.4647105823863638 0.9244223298462176 Q -3.459383877840909 0.9193619605280359 -3.450861150568182 0.9193619605280359 Q -3.4419833096590913 0.9193619605280359 -3.437278053977273 0.9245998866643994 Q -3.4325727982954546 0.9298378128007632 -3.4299094460227275 0.9364074150734903 L -3.3231977982954546 1.2011446309825813 L -3.2915926846590913 1.2011446309825813 Q -3.284845525568182 1.2011446309825813 -3.281915838068182 1.2060274434825813 Q -3.278986150568182 1.2109102559825813 -3.278986150568182 1.2174798582553086 Q -3.278986150568182 1.2233392332553086 -3.2823597301136367 1.2278669321189448 Q -3.2857333096590913 1.2323946309825813 -3.2919477982954546 1.2323946309825813 L -3.4064719460227275 1.2323946309825813 Q -3.4126864346590913 1.2323946309825813 -3.4161487926136367 1.2278669321189448 Q -3.419611150568182 1.2233392332553086 -3.419611150568182 1.2174798582553086 Q -3.419611150568182 1.2109102559825813 -3.4165926846590913 1.2060274434825813 Q -3.41357421875 1.2011446309825813 -3.4068270596590913 1.2011446309825813 L -3.367942116477273 1.2011446309825813 L -3.394220525568182 1.1317199150734905 L -3.52294921875 1.1317199150734905 L -3.550825639204546 1.2011446309825813 L -3.5178000710227275 1.2011446309825813 Q -3.5110529119318183 1.2011446309825813 -3.5080344460227275 1.2060274434825813 Q -3.5050159801136367 1.2109102559825813 -3.5050159801136367 1.2174798582553086 Q -3.5050159801136367 1.2233392332553086 -3.508478338068182 1.2278669321189448 Q -3.5119406960227275 1.2323946309825813 -3.5181551846590913 1.2323946309825813 L -3.6145685369318183 1.2323946309825813 Q -3.620783025568182 1.2323946309825813 -3.6242453835227275 1.2278669321189448 Q -3.627707741477273 1.2233392332553086 -3.627707741477273 1.2174798582553086 L -3.627707741477273 1.2174798582553086 M -3.5119406960227275 1.1043761650734905 L -3.404341264204546 1.1043761650734905 L -3.4563654119318183 0.9662369605280359 L -3.5119406960227275 1.1043761650734905 M -3.111106178977273 1.2368335514371267 Q -3.1643732244318183 1.2368335514371267 -3.1982865767045454 1.207270341209854 Q -3.232199928977273 1.1777071309825813 -3.232199928977273 1.1251503128007632 L -3.232199928977273 0.9593122446189449 L -3.2590110085227275 0.9593122446189449 Q -3.2657581676136362 0.9593122446189449 -3.2687766335227275 0.9544294321189449 Q -3.2717950994318183 0.9495466196189449 -3.2717950994318183 0.9429770173462176 Q -3.2717950994318183 0.9371176423462176 -3.268332741477273 0.9325899434825813 Q -3.2648703835227275 0.9280622446189449 -3.2586558948863638 0.9280622446189449 L -3.154962713068182 0.9280622446189449 Q -3.1487482244318183 0.9280622446189449 -3.1453746448863638 0.9325899434825813 Q -3.142001065340909 0.9371176423462176 -3.142001065340909 0.9429770173462176 Q -3.142001065340909 0.9495466196189449 -3.144930752840909 0.9544294321189449 Q -3.147860440340909 0.9593122446189449 -3.1546075994318183 0.9593122446189449 L -3.1906516335227275 0.9593122446189449 L -3.1906516335227275 1.1251503128007632 Q -3.1906516335227275 1.1629699150734905 -3.1699662642045454 1.1840103980280359 Q -3.1492808948863638 1.2050508809825813 -3.111106178977273 1.2050508809825813 Q -3.0763050426136362 1.2050508809825813 -3.055442116477273 1.1826787218916721 Q -3.034579190340909 1.1603065628007632 -3.034579190340909 1.1255054264371267 L -3.034579190340909 0.9593122446189449 L -3.0684925426136362 0.9593122446189449 Q -3.0752397017045454 0.9593122446189449 -3.0782581676136362 0.9544294321189449 Q -3.0812766335227275 0.9495466196189449 -3.0812766335227275 0.9429770173462176 Q -3.0812766335227275 0.9371176423462176 -3.077814275568182 0.9325899434825813 Q -3.0743519176136362 0.9280622446189449 -3.068137428977273 0.9280622446189449 L -2.9699485085227275 0.9280622446189449 Q -2.9637340198863638 0.9280622446189449 -2.9602716619318183 0.9325899434825813 Q -2.956809303977273 0.9371176423462176 -2.956809303977273 0.9429770173462176 Q -2.956809303977273 0.9495466196189449 -2.9598277698863638 0.9544294321189449 Q -2.9628462357954546 0.9593122446189449 -2.9695933948863638 0.9593122446189449 L -3.00048828125 0.9593122446189449 L -3.00048828125 1.1255054264371267 Q -3.00048828125 1.1748662218916721 -3.0312056107954546 1.2058498866643994 Q -3.061922940340909 1.2368335514371267 -3.111106178977273 1.2368335514371267 L -3.111106178977273 1.2368335514371267 M -2.565829190340909 1.1310096878007632 Q -2.565829190340909 1.1736233241643994 -2.6015181107954546 1.2052284378007632 Q -2.63720703125 1.2368335514371267 -2.696688565340909 1.2368335514371267 Q -2.7636274857954546 1.2368335514371267 -2.808283025568182 1.1927106821189448 Q -2.852938565340909 1.1485878128007632 -2.852938565340909 1.0745466196189448 Q -2.852938565340909 1.0068974718916721 -2.807395241477273 0.9652603980280359 Q -2.7618519176136362 0.9236233241643994 -2.6933149857954546 0.9236233241643994 Q -2.6643732244318183 0.9236233241643994 -2.6435990767045454 0.9333001707553086 Q -2.622824928977273 0.9429770173462176 -2.606844815340909 0.9593122446189449 L -2.606844815340909 0.9408463355280359 Q -2.606844815340909 0.9340991764371267 -2.601962002840909 0.9310807105280359 Q -2.597079190340909 0.9280622446189449 -2.5905095880681817 0.9280622446189449 Q -2.5846502130681817 0.9280622446189449 -2.5801225142045454 0.9315246025734903 Q -2.575594815340909 0.9349869605280359 -2.575594815340909 0.9412014491643994 L -2.575594815340909 1.0076076991643994 Q -2.575594815340909 1.0138221878007632 -2.5801225142045454 1.0172845457553086 Q -2.5846502130681817 1.020746903709854 -2.5905095880681817 1.020746903709854 Q -2.5965465198863638 1.020746903709854 -2.599387428977273 1.0160416480280359 Q -2.6022283380681817 1.0113363923462177 -2.6054243607954546 1.0068974718916721 Q -2.6183860085227275 0.985590653709854 -2.639248934659091 0.9713861082553086 Q -2.6601118607954546 0.9571815628007632 -2.6933149857954546 0.9571815628007632 Q -2.745871803977273 0.9571815628007632 -2.776056463068182 0.9910061366643994 Q -2.806241122159091 1.0248307105280359 -2.806241122159091 1.0764997446189448 Q -2.806241122159091 1.1347383809825813 -2.776766690340909 1.1683853980280359 Q -2.7472922585227275 1.2020324150734905 -2.6933149857954546 1.2020324150734905 Q -2.655850497159091 1.2020324150734905 -2.632590553977273 1.1817021593916721 Q -2.6093306107954546 1.161371903709854 -2.6027610085227275 1.1276361082553086 Q -2.6015181107954546 1.1212440628007632 -2.596102627840909 1.1181368184825813 Q -2.5906871448863638 1.1150295741643994 -2.5846502130681817 1.1150295741643994 Q -2.577725497159091 1.1150295741643994 -2.57177734375 1.1191133809825813 Q -2.565829190340909 1.1231971878007632 -2.565829190340909 1.1310096878007632 L -2.565829190340909 1.1310096878007632 M -2.377707741477273 1.2368335514371267 Q -2.446067116477273 1.2368335514371267 -2.489657315340909 1.1943086934825813 Q -2.5332475142045454 1.1517838355280359 -2.5332475142045454 1.0814713355280359 Q -2.5332475142045454 1.010981278709854 -2.489657315340909 0.9673023014371267 Q -2.446067116477273 0.9236233241643994 -2.377707741477273 0.9236233241643994 Q -2.3416637073863638 0.9236233241643994 -2.3098810369318183 0.9401361082553086 Q -2.2780983664772725 0.9566488923462176 -2.264248934659091 0.9861233241643994 L -2.264248934659091 0.9280622446189449 L -2.0517134232954546 0.9280622446189449 Q -2.045321377840909 0.9280622446189449 -2.0423029119318183 0.931879716209854 Q -2.0392844460227275 0.9356971878007632 -2.0371537642045454 0.9419116764371267 L -2.020108309659091 0.9981971878007632 Q -2.0195756392045454 1.0001503128007632 -2.0193093039772725 1.0019258809825813 Q -2.01904296875 1.0037014491643994 -2.01904296875 1.005121903709854 Q -2.01904296875 1.010981278709854 -2.0226828835227275 1.0146211934825813 Q -2.0263227982954546 1.0182611082553086 -2.0320046164772725 1.0182611082553086 Q -2.03857421875 1.0182611082553086 -2.0432794744318183 1.0142660798462177 Q -2.0479847301136362 1.0102710514371267 -2.05029296875 1.0047667900734905 L -2.0694691051136362 0.9593122446189449 L -2.222878196022727 0.9593122446189449 L -2.222878196022727 1.0606971878007632 L -2.16357421875 1.0606971878007632 L -2.154518821022727 1.0276716196189448 Q -2.1530983664772725 1.022700028709854 -2.1494584517045454 1.0191488923462177 Q -2.1458185369318183 1.0155977559825813 -2.1403142755681817 1.0155977559825813 Q -2.13427734375 1.0155977559825813 -2.131081321022727 1.0195927843916721 Q -2.1278852982954546 1.0235878128007632 -2.1278852982954546 1.0298023014371267 L -2.1305486505681817 1.0727710514371267 L -2.1278852982954546 1.1171602559825813 Q -2.1278852982954546 1.1233747446189448 -2.131081321022727 1.1273697730280359 Q -2.13427734375 1.1313648014371267 -2.1403142755681817 1.1313648014371267 Q -2.1458185369318183 1.1313648014371267 -2.1494584517045454 1.1278136650734905 Q -2.1530983664772725 1.124262528709854 -2.154518821022727 1.1192909378007632 L -2.16357421875 1.0862653696189448 L -2.222878196022727 1.0862653696189448 L -2.222878196022727 1.2011446309825813 L -2.0694691051136362 1.2011446309825813 L -2.0488725142045454 1.1425508809825813 Q -2.04638671875 1.1370466196189448 -2.0419477982954546 1.133051591209854 Q -2.037508877840909 1.1290565628007632 -2.0305841619318183 1.1290565628007632 Q -2.0247247869318183 1.1290565628007632 -2.0211736505681817 1.1326076991643994 Q -2.0176225142045454 1.1361588355280359 -2.0176225142045454 1.1421957673462177 Q -2.0176225142045454 1.1439713355280359 -2.0178888494318183 1.145746903709854 Q -2.018155184659091 1.1475224718916721 -2.0186878551136362 1.1491204832553086 L -2.029873934659091 1.2185451991643994 Q -2.031649502840909 1.2249372446189448 -2.0348455255681817 1.2286659378007632 Q -2.0380415482954546 1.2323946309825813 -2.04443359375 1.2323946309825813 L -2.264248934659091 1.2323946309825813 L -2.264248934659091 1.1771744605280359 Q -2.2754350142045454 1.2039855400734905 -2.3086381392045454 1.2204095457553086 Q -2.3418412642045454 1.2368335514371267 -2.377707741477273 1.2368335514371267 L -2.377707741477273 1.2368335514371267 M -2.379305752840909 0.9571815628007632 Q -2.43115234375 0.9571815628007632 -2.4600053267045454 0.992426591209854 Q -2.488858309659091 1.0276716196189448 -2.488858309659091 1.0814713355280359 Q -2.488858309659091 1.1352710514371267 -2.459206321022727 1.1692731821189448 Q -2.4295543323863638 1.2032753128007632 -2.3762872869318183 1.2032753128007632 Q -2.3239080255681817 1.2032753128007632 -2.2940784801136362 1.1697170741643994 Q -2.264248934659091 1.1361588355280359 -2.264248934659091 1.0818264491643994 Q -2.264248934659091 1.0269613923462177 -2.2948774857954546 0.9920714775734903 Q -2.3255060369318183 0.9571815628007632 -2.379305752840909 0.9571815628007632 L -2.379305752840909 0.9571815628007632 M -1.837491122159091 1.2368335514371267 Q -1.8907581676136367 1.2368335514371267 -1.924671519886364 1.207270341209854 Q -1.958584872159091 1.1777071309825813 -1.958584872159091 1.1251503128007632 L -1.958584872159091 0.9593122446189449 L -1.9853959517045456 0.9593122446189449 Q -1.9921431107954548 0.9593122446189449 -1.9951615767045456 0.9544294321189449 Q -1.9981800426136367 0.9495466196189449 -1.9981800426136367 0.9429770173462176 Q -1.9981800426136367 0.9371176423462176 -1.994717684659091 0.9325899434825813 Q -1.9912553267045456 0.9280622446189449 -1.985040838068182 0.9280622446189449 L -1.8813476562500002 0.9280622446189449 Q -1.8751331676136367 0.9280622446189449 -1.871759588068182 0.9325899434825813 Q -1.8683860085227275 0.9371176423462176 -1.8683860085227275 0.9429770173462176 Q -1.8683860085227275 0.9495466196189449 -1.8713156960227275 0.9544294321189449 Q -1.8742453835227275 0.9593122446189449 -1.8809925426136367 0.9593122446189449 L -1.9170365767045456 0.9593122446189449 L -1.9170365767045456 1.1251503128007632 Q -1.9170365767045456 1.1629699150734905 -1.896351207386364 1.1840103980280359 Q -1.875665838068182 1.2050508809825813 -1.837491122159091 1.2050508809825813 Q -1.8026899857954548 1.2050508809825813 -1.781827059659091 1.1826787218916721 Q -1.7609641335227275 1.1603065628007632 -1.7609641335227275 1.1255054264371267 L -1.7609641335227275 0.9593122446189449 L -1.7948774857954548 0.9593122446189449 Q -1.8016246448863638 0.9593122446189449 -1.8046431107954548 0.9544294321189449 Q -1.8076615767045456 0.9495466196189449 -1.8076615767045456 0.9429770173462176 Q -1.8076615767045456 0.9371176423462176 -1.8041992187500002 0.9325899434825813 Q -1.8007368607954548 0.9280622446189449 -1.794522372159091 0.9280622446189449 L -1.6963334517045456 0.9280622446189449 Q -1.690118963068182 0.9280622446189449 -1.6866566051136367 0.9325899434825813 Q -1.6831942471590913 0.9371176423462176 -1.6831942471590913 0.9429770173462176 Q -1.6831942471590913 0.9495466196189449 -1.686212713068182 0.9544294321189449 Q -1.689231178977273 0.9593122446189449 -1.695978338068182 0.9593122446189449 L -1.7268732244318183 0.9593122446189449 L -1.7268732244318183 1.1255054264371267 Q -1.7268732244318183 1.1748662218916721 -1.757590553977273 1.2058498866643994 Q -1.7883078835227275 1.2368335514371267 -1.837491122159091 1.2368335514371267 L -1.837491122159091 1.2368335514371267 M -1.5430131392045456 1.0651361082553086 Q -1.502530184659091 1.0651361082553086 -1.4716352982954548 1.0581226139371267 Q -1.4407404119318183 1.0511091196189448 -1.4407404119318183 1.0124017332553086 Q -1.4407404119318183 0.9729841196189449 -1.4754527698863638 0.9661481821189449 Q -1.5101651278409094 0.9593122446189449 -1.549582741477273 0.9593122446189449 L -1.5756835937500002 0.9593122446189449 L -1.5756835937500002 1.0651361082553086 L -1.5430131392045456 1.0651361082553086 M -1.3975941051136367 1.0106261650734905 Q -1.3975941051136367 1.0468477559825813 -1.4212091619318183 1.0631829832553086 Q -1.4448242187500002 1.0795182105280359 -1.479270241477273 1.0855551423462177 Q -1.4624023437500002 1.093012528709854 -1.449795809659091 1.1050863923462177 Q -1.437189275568182 1.1171602559825813 -1.4291992187500002 1.1365139491643994 L -1.4025656960227275 1.2009670741643994 L -1.3764648437500002 1.2009670741643994 Q -1.3658114346590913 1.2009670741643994 -1.3615500710227275 1.2046957673462177 Q -1.3572887073863638 1.2084244605280359 -1.3572887073863638 1.2174798582553086 Q -1.3572887073863638 1.2274230400734905 -1.3626154119318183 1.2299976139371267 Q -1.367942116477273 1.2325721878007632 -1.3762872869318183 1.2325721878007632 L -1.4533469460227275 1.2323946309825813 Q -1.459561434659091 1.2323946309825813 -1.4630237926136367 1.2278669321189448 Q -1.466486150568182 1.2233392332553086 -1.466486150568182 1.2174798582553086 Q -1.466486150568182 1.2109102559825813 -1.463467684659091 1.2059386650734905 Q -1.4604492187500002 1.2009670741643994 -1.453702059659091 1.2009670741643994 L -1.445001775568182 1.2009670741643994 L -1.4648881392045456 1.1507184946189448 Q -1.4728781960227275 1.1306545741643994 -1.490900213068182 1.1136978980280359 Q -1.5089222301136367 1.0967412218916721 -1.5353781960227275 1.0967412218916721 L -1.5756835937500002 1.0967412218916721 L -1.5756835937500002 1.2009670741643994 L -1.5288085937500002 1.2009670741643994 Q -1.522061434659091 1.2009670741643994 -1.5190429687500002 1.2059386650734905 Q -1.5160245028409094 1.2109102559825813 -1.5160245028409094 1.2174798582553086 Q -1.5160245028409094 1.2233392332553086 -1.5194868607954548 1.2278669321189448 Q -1.5229492187500002 1.2323946309825813 -1.5291637073863638 1.2323946309825813 L -1.6564719460227275 1.2323946309825813 Q -1.662686434659091 1.2323946309825813 -1.6661487926136367 1.2278669321189448 Q -1.669611150568182 1.2233392332553086 -1.669611150568182 1.2174798582553086 Q -1.669611150568182 1.2109102559825813 -1.666592684659091 1.2059386650734905 Q -1.6635742187500002 1.2009670741643994 -1.656827059659091 1.2009670741643994 L -1.6172318892045456 1.2009670741643994 L -1.6172318892045456 0.9593122446189449 L -1.6495472301136367 0.9593122446189449 Q -1.6562943892045456 0.9593122446189449 -1.6593128551136367 0.9544294321189449 Q -1.6623313210227275 0.9495466196189449 -1.6623313210227275 0.9429770173462176 Q -1.6623313210227275 0.9371176423462176 -1.658868963068182 0.9325899434825813 Q -1.6554066051136367 0.9280622446189449 -1.649192116477273 0.9280622446189449 L -1.5440784801136367 0.9280622446189449 Q -1.4863725142045456 0.9280622446189449 -1.441983309659091 0.9409351139371267 Q -1.3975941051136367 0.9538079832553086 -1.3975941051136367 1.0106261650734905 L -1.3975941051136367 1.0106261650734905 M -0.9831764914772732 1.0786304264371267 Q -0.9831764914772732 1.0214571309825813 -1.0173561789772732 0.9903846878007632 Q -1.0515358664772732 0.9593122446189449 -1.109064275568182 0.9593122446189449 L -1.159845525568182 0.9593122446189449 L -1.159845525568182 1.2011446309825813 Q -1.1536310369318186 1.2014997446189448 -1.1475941051136367 1.2016773014371267 Q -1.141557173295455 1.2018548582553086 -1.1355202414772732 1.2018548582553086 Q -1.068226207386364 1.2018548582553086 -1.0257013494318186 1.1746886650734905 Q -0.9831764914772732 1.1475224718916721 -0.9831764914772732 1.0786304264371267 L -0.9831764914772732 1.0786304264371267 M -0.9402077414772732 1.0786304264371267 Q -0.9402077414772732 1.153559403709854 -0.9895685369318186 1.1929770173462177 Q -1.038929332386364 1.2323946309825813 -1.1140358664772732 1.2323946309825813 L -1.2486239346590913 1.2323946309825813 Q -1.2548384232954548 1.2323946309825813 -1.2583007812500004 1.2278669321189448 Q -1.2617631392045459 1.2233392332553086 -1.2617631392045459 1.2174798582553086 Q -1.2617631392045459 1.2109102559825813 -1.2587446732954548 1.2060274434825813 Q -1.255726207386364 1.2011446309825813 -1.2489790482954548 1.2011446309825813 L -1.2013938210227277 1.2011446309825813 L -1.2013938210227277 0.9593122446189449 L -1.2374378551136367 0.9593122446189449 Q -1.2441850142045459 0.9593122446189449 -1.2471147017045459 0.9544294321189449 Q -1.2500443892045459 0.9495466196189449 -1.2500443892045459 0.9429770173462176 Q -1.2500443892045459 0.9371176423462176 -1.2465820312500004 0.9325899434825813 Q -1.2431196732954548 0.9280622446189449 -1.2369051846590913 0.9280622446189449 L -1.1140358664772732 0.9280622446189449 Q -1.0373313210227275 0.9280622446189449 -0.9887695312500003 0.9654379548462176 Q -0.9402077414772732 1.0028136650734905 -0.9402077414772732 1.0786304264371267 L -0.9402077414772732 1.0786304264371267 M -0.7201260653409094 1.1171602559825813 Q -0.7201260653409094 1.1233747446189448 -0.7233220880681821 1.1273697730280359 Q -0.7265181107954548 1.1313648014371267 -0.7325550426136367 1.1313648014371267 Q -0.738059303977273 1.1313648014371267 -0.7416992187500003 1.1278136650734905 Q -0.7453391335227276 1.124262528709854 -0.7467595880681821 1.1192909378007632 L -0.7558149857954548 1.0862653696189448 L -0.8151189630681821 1.0862653696189448 L -0.8151189630681821 1.2011446309825813 L -0.6583362926136367 1.2011446309825813 L -0.6377397017045459 1.1425508809825813 Q -0.6352539062500003 1.1370466196189448 -0.6308149857954548 1.133051591209854 Q -0.6263760653409094 1.1290565628007632 -0.6194513494318186 1.1290565628007632 Q -0.6135919744318186 1.1290565628007632 -0.6100408380681821 1.1326076991643994 Q -0.6064897017045459 1.1361588355280359 -0.6064897017045459 1.1421957673462177 Q -0.6064897017045459 1.1439713355280359 -0.6067560369318186 1.145746903709854 Q -0.6070223721590913 1.1475224718916721 -0.6075550426136367 1.1491204832553086 L -0.6187411221590913 1.2185451991643994 Q -0.6205166903409094 1.2249372446189448 -0.6237127130681821 1.2286659378007632 Q -0.6269087357954548 1.2323946309825813 -0.6333007812500003 1.2323946309825813 L -0.9067382812500003 1.2323946309825813 Q -0.912952769886364 1.2323946309825813 -0.9164151278409094 1.2278669321189448 Q -0.9198774857954549 1.2233392332553086 -0.9198774857954549 1.2174798582553086 Q -0.9198774857954549 1.2109102559825813 -0.916859019886364 1.2060274434825813 Q -0.913840553977273 1.2011446309825813 -0.907093394886364 1.2011446309825813 L -0.8564897017045457 1.2011446309825813 L -0.8564897017045457 0.9593122446189449 L -0.8889825994318186 0.9593122446189449 Q -0.8957297585227276 0.9593122446189449 -0.8986594460227276 0.9544294321189449 Q -0.9015891335227276 0.9495466196189449 -0.9015891335227276 0.9429770173462176 Q -0.9015891335227276 0.9371176423462176 -0.898215553977273 0.9325899434825813 Q -0.8948419744318186 0.9280622446189449 -0.8886274857954549 0.9280622446189449 L -0.6405806107954548 0.9280622446189449 Q -0.6341885653409094 0.9280622446189449 -0.6311700994318186 0.931879716209854 Q -0.6281516335227275 0.9356971878007632 -0.6260209517045459 0.9419116764371267 L -0.6089754971590913 0.9981971878007632 Q -0.6084428267045459 1.0001503128007632 -0.608176491477273 1.0019258809825813 Q -0.6079101562500003 1.0037014491643994 -0.6079101562500003 1.005121903709854 Q -0.6079101562500003 1.010981278709854 -0.6115500710227275 1.0146211934825813 Q -0.6151899857954548 1.0182611082553086 -0.620871803977273 1.0182611082553086 Q -0.6274414062500003 1.0182611082553086 -0.6321466619318186 1.0142660798462177 Q -0.6368519176136367 1.0102710514371267 -0.6391601562500003 1.0047667900734905 L -0.6583362926136367 0.9593122446189449 L -0.8151189630681821 0.9593122446189449 L -0.8151189630681821 1.0606971878007632 L -0.7558149857954548 1.0606971878007632 L -0.7467595880681821 1.0276716196189448 Q -0.7453391335227276 1.022700028709854 -0.7416992187500003 1.0191488923462177 Q -0.738059303977273 1.0155977559825813 -0.7325550426136367 1.0155977559825813 Q -0.7265181107954548 1.0155977559825813 -0.7233220880681821 1.0195927843916721 Q -0.7201260653409094 1.0235878128007632 -0.7201260653409094 1.0298023014371267 L -0.7227894176136367 1.0727710514371267 L -0.7201260653409094 1.1171602559825813 M -0.18248401988636387 0.9429770173462176 Q -0.18248401988636387 0.9495466196189449 -0.18541370738636387 0.9544294321189449 Q -0.18834339488636387 0.9593122446189449 -0.19509055397727298 0.9593122446189449 L -0.22527521306818205 0.9593122446189449 L -0.32310901988636387 1.2272454832553086 Q -0.3261274857954548 1.2341701991643994 -0.32941228693181845 1.2379876707553086 Q -0.33269708806818205 1.2418051423462177 -0.3397993607954548 1.2418051423462177 Q -0.3467240767045457 1.2418051423462177 -0.35036399147727293 1.2377213355280359 Q -0.3540039062500002 1.233637528709854 -0.35631214488636387 1.2272454832553086 L -0.4555664062500002 0.9593122446189449 L -0.49303089488636387 0.9593122446189449 Q -0.499778053977273 0.9593122446189449 -0.5027077414772729 0.9544294321189449 Q -0.5056374289772729 0.9495466196189449 -0.5056374289772729 0.9429770173462176 Q -0.5056374289772729 0.9371176423462176 -0.5022638494318185 0.9325899434825813 Q -0.49889026988636387 0.9280622446189449 -0.4926757812500002 0.9280622446189449 L -0.38347833806818205 0.9280622446189449 Q -0.37726384943181845 0.9280622446189449 -0.37380149147727293 0.9325899434825813 Q -0.3703391335227275 0.9371176423462176 -0.3703391335227275 0.9429770173462176 Q -0.3703391335227275 0.9495466196189449 -0.37335759943181845 0.9544294321189449 Q -0.37637606534090934 0.9593122446189449 -0.38312322443181845 0.9593122446189449 L -0.411887428977273 0.9593122446189449 L -0.33482776988636387 1.1734457673462177 L -0.2616743607954548 0.9593122446189449 L -0.29043856534090934 0.9593122446189449 Q -0.29718572443181845 0.9593122446189449 -0.30020419034090934 0.9544294321189449 Q -0.3032226562500002 0.9495466196189449 -0.3032226562500002 0.9429770173462176 Q -0.3032226562500002 0.9371176423462176 -0.2997602982954548 0.9325899434825813 Q -0.29629794034090934 0.9280622446189449 -0.2900834517045457 0.9280622446189449 L -0.19544566761363658 0.9280622446189449 Q -0.18923117897727298 0.9280622446189449 -0.1858575994318184 0.9325899434825813 Q -0.18248401988636387 0.9371176423462176 -0.18248401988636387 0.9429770173462176 L -0.18248401988636387 0.9429770173462176 M -0.007679332386363841 1.2368335514371267 Q -0.07710404829545477 1.2368335514371267 -0.12131569602272749 1.1943086934825813 Q -0.16552734375000022 1.1517838355280359 -0.16552734375000022 1.0814713355280359 Q -0.16552734375000022 1.010981278709854 -0.12131569602272749 0.9673023014371267 Q -0.07710404829545477 0.9236233241643994 -0.007679332386363841 0.9236233241643994 Q 0.06263316761363616 0.9236233241643994 0.1071111505681816 0.9673023014371267 Q 0.15158913352272707 1.010981278709854 0.15158913352272707 1.0814713355280359 Q 0.15158913352272707 1.1517838355280359 0.10693359374999978 1.1943086934825813 Q 0.06227805397727251 1.2368335514371267 -0.007679332386363841 1.2368335514371267 L -0.007679332386363841 1.2368335514371267 M -0.009277343750000222 0.9571815628007632 Q -0.06218927556818203 0.9571815628007632 -0.09166370738636385 0.992426591209854 Q -0.12113813920454568 1.0276716196189448 -0.12113813920454568 1.0814713355280359 Q -0.12113813920454568 1.1352710514371267 -0.09086470170454568 1.1692731821189448 Q -0.06059126420454568 1.2032753128007632 -0.00625887784090931 1.2032753128007632 Q 0.046830610795454336 1.2032753128007632 0.07719282670454525 1.1697170741643994 Q 0.10755504261363613 1.1361588355280359 0.10755504261363613 1.0818264491643994 Q 0.10755504261363613 1.0269613923462177 0.07639382102272707 0.9920714775734903 Q 0.045232599431817955 0.9571815628007632 -0.009277343750000222 0.9571815628007632 L -0.009277343750000222 0.9571815628007632 M 0.3084605823863634 0.9516773014371267 Q 0.26584694602272707 0.9516773014371267 0.25199751420454525 0.9677461934825813 Q 0.23814808238636342 0.9838150855280359 0.23814808238636342 1.0038790059825813 Q 0.23814808238636342 1.0211020173462177 0.25013316761363613 1.0316666480280359 Q 0.26211825284090884 1.042231278709854 0.2859108664772725 1.048090653709854 L 0.33686967329545436 1.0606971878007632 Q 0.3718483664772725 1.0693974718916721 0.39386541193181795 1.0891950571189448 Q 0.4158824573863634 1.1089926423462177 0.4158824573863634 1.1510736082553086 Q 0.4158824573863634 1.1970608241643994 0.3794833096590907 1.2171247446189448 Q 0.34308416193181795 1.2371886650734905 0.2965642755681816 1.2371886650734905 Q 0.27774325284090884 1.2371886650734905 0.25803444602272707 1.2322170741643994 Q 0.23832563920454525 1.2272454832553086 0.2212801846590907 1.2155267332553086 Q 0.22056995738636342 1.2215636650734905 0.2175514914772725 1.2291986082553086 Q 0.2145330255681816 1.2368335514371267 0.20849609374999978 1.2368335514371267 Q 0.2021040482954543 1.2368335514371267 0.1981977982954543 1.2341701991643994 Q 0.19429154829545434 1.2315068468916721 0.19358132102272704 1.2254699150734905 L 0.18346058238636342 1.1374017332553086 Q 0.18346058238636342 1.1302994605280359 0.18772194602272704 1.1268371025734905 Q 0.1919833096590907 1.1233747446189448 0.20050603693181795 1.1233747446189448 Q 0.2058327414772725 1.1233747446189448 0.2099165482954543 1.1264819889371267 Q 0.21400035511363613 1.1295892332553086 0.21471058238636342 1.1349159378007632 L 0.2175514914772725 1.1595963355280359 Q 0.2193270596590907 1.1761091196189448 0.24205433238636342 1.1909351139371267 Q 0.26478160511363613 1.2057611082553086 0.29212535511363613 1.2057611082553086 Q 0.32248757102272707 1.2057611082553086 0.35098544034090884 1.1949301423462177 Q 0.3794833096590907 1.1840991764371267 0.3794833096590907 1.1508960514371267 Q 0.3794833096590907 1.1269258809825813 0.3650124289772725 1.1175153696189448 Q 0.35054154829545436 1.1081048582553086 0.3306551846590907 1.1024230400734905 L 0.2724165482954543 1.0859102559825813 Q 0.24063387784090887 1.0788079832553086 0.21977095170454525 1.0606084093916721 Q 0.1989080255681816 1.0424088355280359 0.1989080255681816 1.0067199150734905 Q 0.1989080255681816 0.9678349718916721 0.22935901988636342 0.9457291480280359 Q 0.25981001420454525 0.9236233241643994 0.3026012073863634 0.9236233241643994 Q 0.3210671164772725 0.9236233241643994 0.3405095880681816 0.9282398014371267 Q 0.3599520596590907 0.932856278709854 0.3727361505681816 0.9435096878007632 Q 0.3727361505681816 0.9360523014371267 0.3774414062499998 0.929926591209854 Q 0.38214666193181795 0.9238008809825813 0.3894264914772725 0.9238008809825813 Q 0.39475319602272707 0.9238008809825813 0.39883700284090884 0.926996903709854 Q 0.4029208096590907 0.9301929264371267 0.40363103693181795 0.9355196309825813 L 0.4048739346590907 1.0060096878007632 Q 0.4048739346590907 1.0136446309825813 0.4002574573863634 1.0171069889371267 Q 0.39564098011363613 1.0205693468916721 0.3885387073863634 1.0205693468916721 Q 0.3823242187499998 1.0205693468916721 0.37832919034090884 1.0179059946189448 Q 0.37433416193181795 1.0152426423462177 0.3736239346590907 1.0093832673462177 L 0.3729137073863634 0.9887866764371267 Q 0.3706054687499998 0.9687227559825813 0.35089666193181795 0.960200028709854 Q 0.33118785511363613 0.9516773014371267 0.3084605823863634 0.9516773014371267 L 0.3084605823863634 0.9516773014371267 M 0.7232333096590907 1.1171602559825813 Q 0.7232333096590907 1.1233747446189448 0.7200372869318179 1.1273697730280359 Q 0.7168412642045452 1.1313648014371267 0.7108043323863634 1.1313648014371267 Q 0.7053000710227271 1.1313648014371267 0.7016601562499998 1.1278136650734905 Q 0.6980202414772725 1.124262528709854 0.6965997869318179 1.1192909378007632 L 0.6875443892045452 1.0862653696189448 L 0.628240411931818 1.0862653696189448 L 0.628240411931818 1.2011446309825813 L 0.7850230823863634 1.2011446309825813 L 0.8056196732954544 1.1425508809825813 Q 0.8081054687499998 1.1370466196189448 0.8125443892045452 1.133051591209854 Q 0.8169833096590907 1.1290565628007632 0.8239080255681817 1.1290565628007632 Q 0.8297674005681817 1.1290565628007632 0.8333185369318179 1.1326076991643994 Q 0.8368696732954544 1.1361588355280359 0.8368696732954544 1.1421957673462177 Q 0.8368696732954544 1.1439713355280359 0.8366033380681817 1.145746903709854 Q 0.836337002840909 1.1475224718916721 0.8358043323863634 1.1491204832553086 L 0.824618252840909 1.2185451991643994 Q 0.8228426846590907 1.2249372446189448 0.8196466619318179 1.2286659378007632 Q 0.8164506392045452 1.2323946309825813 0.8100585937499998 1.2323946309825813 L 0.5366210937499998 1.2323946309825813 Q 0.5304066051136361 1.2323946309825813 0.5269442471590907 1.2278669321189448 Q 0.5234818892045452 1.2233392332553086 0.5234818892045452 1.2174798582553086 Q 0.5234818892045452 1.2109102559825813 0.5265003551136361 1.2060274434825813 Q 0.5295188210227271 1.2011446309825813 0.5362659801136361 1.2011446309825813 L 0.5868696732954544 1.2011446309825813 L 0.5868696732954544 0.9593122446189449 L 0.5543767755681815 0.9593122446189449 Q 0.5476296164772725 0.9593122446189449 0.5446999289772725 0.9544294321189449 Q 0.5417702414772725 0.9495466196189449 0.5417702414772725 0.9429770173462176 Q 0.5417702414772725 0.9371176423462176 0.5451438210227271 0.9325899434825813 Q 0.5485174005681815 0.9280622446189449 0.5547318892045452 0.9280622446189449 L 0.8027787642045452 0.9280622446189449 Q 0.8091708096590907 0.9280622446189449 0.8121892755681817 0.931879716209854 Q 0.8152077414772725 0.9356971878007632 0.8173384232954544 0.9419116764371267 L 0.834383877840909 0.9981971878007632 Q 0.8349165482954544 1.0001503128007632 0.8351828835227271 1.0019258809825813 Q 0.8354492187499998 1.0037014491643994 0.8354492187499998 1.005121903709854 Q 0.8354492187499998 1.010981278709854 0.8318093039772725 1.0146211934825813 Q 0.8281693892045452 1.0182611082553086 0.8224875710227271 1.0182611082553086 Q 0.8159179687499998 1.0182611082553086 0.8112127130681817 1.0142660798462177 Q 0.8065074573863634 1.0102710514371267 0.8041992187499998 1.0047667900734905 L 0.7850230823863634 0.9593122446189449 L 0.628240411931818 0.9593122446189449 L 0.628240411931818 1.0606971878007632 L 0.6875443892045452 1.0606971878007632 L 0.6965997869318179 1.0276716196189448 Q 0.6980202414772725 1.022700028709854 0.7016601562499998 1.0191488923462177 Q 0.7053000710227271 1.0155977559825813 0.7108043323863634 1.0155977559825813 Q 0.7168412642045452 1.0155977559825813 0.7200372869318179 1.0195927843916721 Q 0.7232333096590907 1.0235878128007632 0.7232333096590907 1.0298023014371267 L 0.7205699573863634 1.0727710514371267 L 0.7232333096590907 1.1171602559825813 M 0.7163085937499998 0.8268548582553086 Q 0.7218128551136361 0.8268548582553086 0.7265181107954544 0.8315601139371267 Q 0.7312233664772725 0.8362653696189449 0.7312233664772725 0.8417696309825813 Q 0.7312233664772725 0.8440778696189449 0.7300692471590907 0.8461197730280359 Q 0.7289151278409088 0.8481616764371267 0.7266068892045452 0.8497596878007632 Q 0.7056551846590907 0.8628988923462176 0.6827503551136361 0.8774585514371267 Q 0.6598455255681817 0.8920182105280359 0.6381835937499998 0.9042696309825813 Q 0.6372958096590907 0.9048023014371267 0.6364080255681817 0.9051574150734903 Q 0.6355202414772725 0.905512528709854 0.6348100142045452 0.905512528709854 Q 0.6314364346590907 0.905512528709854 0.6287730823863634 0.902582841209854 Q 0.6261097301136361 0.899653153709854 0.6261097301136361 0.8962795741643994 Q 0.6261097301136361 0.8945040059825813 0.6269087357954544 0.8931723298462176 Q 0.6277077414772725 0.891840653709854 0.6291281960227271 0.8909528696189449 Q 0.6490145596590907 0.8776361082553086 0.6700550426136361 0.8613008809825813 Q 0.6910955255681817 0.844965653709854 0.7090287642045452 0.8295182105280359 Q 0.7104492187499998 0.8282753128007632 0.7123135653409088 0.8275650855280359 Q 0.7141779119318179 0.8268548582553086 0.7163085937499998 0.8268548582553086 L 0.7163085937499998 0.8268548582553086 M 1.1778675426136362 0.9429770173462176 Q 1.1778675426136362 0.9495466196189449 1.1749378551136362 0.9544294321189449 Q 1.1720081676136362 0.9593122446189449 1.165261008522727 0.9593122446189449 L 1.135076349431818 0.9593122446189449 L 1.0372425426136362 1.2272454832553086 Q 1.0342240767045452 1.2341701991643994 1.0309392755681817 1.2379876707553086 Q 1.027654474431818 1.2418051423462177 1.0205522017045452 1.2418051423462177 Q 1.0136274857954544 1.2418051423462177 1.009987571022727 1.2377213355280359 Q 1.0063476562499998 1.233637528709854 1.0040394176136362 1.2272454832553086 L 0.9047851562499998 0.9593122446189449 L 0.8673206676136361 0.9593122446189449 Q 0.8605735085227271 0.9593122446189449 0.8576438210227271 0.9544294321189449 Q 0.8547141335227271 0.9495466196189449 0.8547141335227271 0.9429770173462176 Q 0.8547141335227271 0.9371176423462176 0.8580877130681815 0.9325899434825813 Q 0.8614612926136361 0.9280622446189449 0.8676757812499998 0.9280622446189449 L 0.9768732244318179 0.9280622446189449 Q 0.9830877130681815 0.9280622446189449 0.9865500710227271 0.9325899434825813 Q 0.9900124289772725 0.9371176423462176 0.9900124289772725 0.9429770173462176 Q 0.9900124289772725 0.9495466196189449 0.9869939630681815 0.9544294321189449 Q 0.9839754971590906 0.9593122446189449 0.9772283380681815 0.9593122446189449 L 0.9484641335227271 0.9593122446189449 L 1.0255237926136362 1.1734457673462177 L 1.0986772017045452 0.9593122446189449 L 1.0699129971590906 0.9593122446189449 Q 1.0631658380681817 0.9593122446189449 1.0601473721590906 0.9544294321189449 Q 1.0571289062499998 0.9495466196189449 1.0571289062499998 0.9429770173462176 Q 1.0571289062499998 0.9371176423462176 1.0605912642045452 0.9325899434825813 Q 1.0640536221590906 0.9280622446189449 1.0702681107954544 0.9280622446189449 L 1.1649058948863633 0.9280622446189449 Q 1.171120383522727 0.9280622446189449 1.1744939630681817 0.9325899434825813 Q 1.1778675426136362 0.9371176423462176 1.1778675426136362 0.9429770173462176 L 1.1778675426136362 0.9429770173462176 M 1.3872958096590906 1.1171602559825813 Q 1.3872958096590906 1.1233747446189448 1.384099786931818 1.1273697730280359 Q 1.3809037642045452 1.1313648014371267 1.3748668323863633 1.1313648014371267 Q 1.369362571022727 1.1313648014371267 1.3657226562499998 1.1278136650734905 Q 1.3620827414772725 1.124262528709854 1.360662286931818 1.1192909378007632 L 1.3516068892045452 1.0862653696189448 L 1.292302911931818 1.0862653696189448 L 1.292302911931818 1.2011446309825813 L 1.4490855823863633 1.2011446309825813 L 1.4696821732954544 1.1425508809825813 Q 1.4721679687499998 1.1370466196189448 1.4766068892045452 1.133051591209854 Q 1.4810458096590908 1.1290565628007632 1.4879705255681817 1.1290565628007632 Q 1.4938299005681817 1.1290565628007632 1.497381036931818 1.1326076991643994 Q 1.5009321732954544 1.1361588355280359 1.5009321732954544 1.1421957673462177 Q 1.5009321732954544 1.1439713355280359 1.5006658380681817 1.145746903709854 Q 1.500399502840909 1.1475224718916721 1.4998668323863633 1.1491204832553086 L 1.488680752840909 1.2185451991643994 Q 1.4869051846590908 1.2249372446189448 1.483709161931818 1.2286659378007632 Q 1.4805131392045452 1.2323946309825813 1.4741210937499998 1.2323946309825813 L 1.2006835937499998 1.2323946309825813 Q 1.1944691051136362 1.2323946309825813 1.1910067471590906 1.2278669321189448 Q 1.1875443892045452 1.2233392332553086 1.1875443892045452 1.2174798582553086 Q 1.1875443892045452 1.2109102559825813 1.1905628551136362 1.2060274434825813 Q 1.193581321022727 1.2011446309825813 1.2003284801136362 1.2011446309825813 L 1.2509321732954544 1.2011446309825813 L 1.2509321732954544 0.9593122446189449 L 1.2184392755681817 0.9593122446189449 Q 1.2116921164772725 0.9593122446189449 1.2087624289772725 0.9544294321189449 Q 1.2058327414772725 0.9495466196189449 1.2058327414772725 0.9429770173462176 Q 1.2058327414772725 0.9371176423462176 1.209206321022727 0.9325899434825813 Q 1.2125799005681817 0.9280622446189449 1.2187943892045452 0.9280622446189449 L 1.4668412642045452 0.9280622446189449 Q 1.4732333096590908 0.9280622446189449 1.4762517755681817 0.931879716209854 Q 1.4792702414772725 0.9356971878007632 1.4814009232954544 0.9419116764371267 L 1.498446377840909 0.9981971878007632 Q 1.4989790482954544 1.0001503128007632 1.499245383522727 1.0019258809825813 Q 1.4995117187499998 1.0037014491643994 1.4995117187499998 1.005121903709854 Q 1.4995117187499998 1.010981278709854 1.4958718039772725 1.0146211934825813 Q 1.4922318892045452 1.0182611082553086 1.486550071022727 1.0182611082553086 Q 1.4799804687499998 1.0182611082553086 1.4752752130681817 1.0142660798462177 Q 1.4705699573863633 1.0102710514371267 1.4682617187499998 1.0047667900734905 L 1.4490855823863633 0.9593122446189449 L 1.292302911931818 0.9593122446189449 L 1.292302911931818 1.0606971878007632 L 1.3516068892045452 1.0606971878007632 L 1.360662286931818 1.0276716196189448 Q 1.3620827414772725 1.022700028709854 1.3657226562499998 1.0191488923462177 Q 1.369362571022727 1.0155977559825813 1.3748668323863633 1.0155977559825813 Q 1.3809037642045452 1.0155977559825813 1.384099786931818 1.0195927843916721 Q 1.3872958096590906 1.0235878128007632 1.3872958096590906 1.0298023014371267 L 1.3846324573863633 1.0727710514371267 L 1.3872958096590906 1.1171602559825813 M 1.3803710937499998 0.8268548582553086 Q 1.3858753551136362 0.8268548582553086 1.3905806107954544 0.8315601139371267 Q 1.3952858664772725 0.8362653696189449 1.3952858664772725 0.8417696309825813 Q 1.3952858664772725 0.8440778696189449 1.3941317471590906 0.8461197730280359 Q 1.392977627840909 0.8481616764371267 1.3906693892045452 0.8497596878007632 Q 1.3697176846590906 0.8628988923462176 1.3468128551136362 0.8774585514371267 Q 1.3239080255681817 0.8920182105280359 1.3022460937499998 0.9042696309825813 Q 1.3013583096590906 0.9048023014371267 1.3004705255681817 0.9051574150734903 Q 1.2995827414772725 0.905512528709854 1.2988725142045452 0.905512528709854 Q 1.2954989346590906 0.905512528709854 1.2928355823863633 0.902582841209854 Q 1.2901722301136362 0.899653153709854 1.2901722301136362 0.8962795741643994 Q 1.2901722301136362 0.8945040059825813 1.2909712357954544 0.8931723298462176 Q 1.2917702414772725 0.891840653709854 1.293190696022727 0.8909528696189449 Q 1.3130770596590906 0.8776361082553086 1.3341175426136362 0.8613008809825813 Q 1.3551580255681817 0.844965653709854 1.3730912642045452 0.8295182105280359 Q 1.3745117187499998 0.8282753128007632 1.376376065340909 0.8275650855280359 Q 1.378240411931818 0.8268548582553086 1.3803710937499998 0.8268548582553086 L 1.3803710937499998 0.8268548582553086 M 1.521795099431818 0.9429770173462176 Q 1.521795099431818 0.9371176423462176 1.5252574573863633 0.9325899434825813 Q 1.528719815340909 0.9280622446189449 1.5349343039772725 0.9280622446189449 L 1.6171431107954544 0.9280622446189449 Q 1.621404474431818 0.9280622446189449 1.6237127130681817 0.9294826991643994 Q 1.6260209517045452 0.930903153709854 1.6276189630681817 0.9342767332553086 L 1.7836914062499998 1.1567554264371267 L 1.7836914062499998 0.9593122446189449 L 1.7517311789772725 0.9593122446189449 Q 1.7449840198863633 0.9593122446189449 1.7419655539772725 0.9544294321189449 Q 1.7389470880681817 0.9495466196189449 1.7389470880681817 0.9429770173462176 Q 1.7389470880681817 0.9371176423462176 1.742409446022727 0.9325899434825813 Q 1.7458718039772725 0.9280622446189449 1.7520862926136362 0.9280622446189449 L 1.8554243607954544 0.9280622446189449 Q 1.861638849431818 0.9280622446189449 1.8650124289772725 0.9325899434825813 Q 1.868386008522727 0.9371176423462176 1.868386008522727 0.9429770173462176 Q 1.868386008522727 0.9495466196189449 1.865456321022727 0.9544294321189449 Q 1.862526633522727 0.9593122446189449 1.855779474431818 0.9593122446189449 L 1.8204456676136362 0.9593122446189449 L 1.8204456676136362 1.2229841196189448 Q 1.8204456676136362 1.229731278709854 1.815740411931818 1.2343477559825813 Q 1.8110351562499998 1.2389642332553086 1.8044655539772725 1.2389642332553086 Q 1.7987837357954544 1.2389642332553086 1.7947887073863633 1.2362121025734905 Q 1.7907936789772725 1.2334599718916721 1.7881303267045452 1.2295537218916721 L 1.6073774857954544 0.973871903709854 L 1.6073774857954544 1.2011446309825813 L 1.6386274857954544 1.2011446309825813 Q 1.6453746448863633 1.2011446309825813 1.6483931107954544 1.2060274434825813 Q 1.6514115767045452 1.2109102559825813 1.6514115767045452 1.2174798582553086 Q 1.6514115767045452 1.2233392332553086 1.6479492187499998 1.2278669321189448 Q 1.6444868607954544 1.2323946309825813 1.6382723721590906 1.2323946309825813 L 1.5349343039772725 1.2323946309825813 Q 1.528719815340909 1.2323946309825813 1.5252574573863633 1.2278669321189448 Q 1.521795099431818 1.2233392332553086 1.521795099431818 1.2174798582553086 Q 1.521795099431818 1.2109102559825813 1.524813565340909 1.2060274434825813 Q 1.5278320312499998 1.2011446309825813 1.534579190340909 1.2011446309825813 L 1.5699129971590906 1.2011446309825813 L 1.5699129971590906 0.9593122446189449 L 1.534579190340909 0.9593122446189449 Q 1.5278320312499998 0.9593122446189449 1.524813565340909 0.9544294321189449 Q 1.521795099431818 0.9495466196189449 1.521795099431818 0.9429770173462176 L 1.521795099431818 0.9429770173462176 M 2.0811878551136362 1.1171602559825813 Q 2.0811878551136362 1.1233747446189448 2.0779918323863633 1.1273697730280359 Q 2.074795809659091 1.1313648014371267 2.0687588778409087 1.1313648014371267 Q 2.0632546164772725 1.1313648014371267 2.059614701704545 1.1278136650734905 Q 2.055974786931818 1.124262528709854 2.0545543323863633 1.1192909378007632 L 2.045498934659091 1.0862653696189448 L 1.9861949573863633 1.0862653696189448 L 1.9861949573863633 1.2011446309825813 L 2.1429776278409087 1.2011446309825813 L 2.1635742187499996 1.1425508809825813 Q 2.166060014204545 1.1370466196189448 2.170498934659091 1.133051591209854 Q 2.1749378551136362 1.1290565628007632 2.181862571022727 1.1290565628007632 Q 2.187721946022727 1.1290565628007632 2.1912730823863633 1.1326076991643994 Q 2.1948242187499996 1.1361588355280359 2.1948242187499996 1.1421957673462177 Q 2.1948242187499996 1.1439713355280359 2.194557883522727 1.145746903709854 Q 2.194291548295454 1.1475224718916721 2.1937588778409087 1.1491204832553086 L 2.182572798295454 1.2185451991643994 Q 2.1807972301136362 1.2249372446189448 2.1776012073863633 1.2286659378007632 Q 2.174405184659091 1.2323946309825813 2.168013139204545 1.2323946309825813 L 1.8945756392045452 1.2323946309825813 Q 1.8883611505681817 1.2323946309825813 1.884898792613636 1.2278669321189448 Q 1.8814364346590906 1.2233392332553086 1.8814364346590906 1.2174798582553086 Q 1.8814364346590906 1.2109102559825813 1.8844549005681817 1.2060274434825813 Q 1.8874733664772725 1.2011446309825813 1.8942205255681817 1.2011446309825813 L 1.9448242187499998 1.2011446309825813 L 1.9448242187499998 0.9593122446189449 L 1.912331321022727 0.9593122446189449 Q 1.905584161931818 0.9593122446189449 1.902654474431818 0.9544294321189449 Q 1.899724786931818 0.9495466196189449 1.899724786931818 0.9429770173462176 Q 1.899724786931818 0.9371176423462176 1.9030983664772725 0.9325899434825813 Q 1.906471946022727 0.9280622446189449 1.9126864346590906 0.9280622446189449 L 2.160733309659091 0.9280622446189449 Q 2.1671253551136362 0.9280622446189449 2.170143821022727 0.931879716209854 Q 2.173162286931818 0.9356971878007632 2.1752929687499996 0.9419116764371267 L 2.192338423295454 0.9981971878007632 Q 2.1928710937499996 1.0001503128007632 2.1931374289772725 1.0019258809825813 Q 2.193403764204545 1.0037014491643994 2.193403764204545 1.005121903709854 Q 2.193403764204545 1.010981278709854 2.189763849431818 1.0146211934825813 Q 2.186123934659091 1.0182611082553086 2.1804421164772725 1.0182611082553086 Q 2.173872514204545 1.0182611082553086 2.169167258522727 1.0142660798462177 Q 2.1644620028409087 1.0102710514371267 2.162153764204545 1.0047667900734905 L 2.1429776278409087 0.9593122446189449 L 1.9861949573863633 0.9593122446189449 L 1.9861949573863633 1.0606971878007632 L 2.045498934659091 1.0606971878007632 L 2.0545543323863633 1.0276716196189448 Q 2.055974786931818 1.022700028709854 2.059614701704545 1.0191488923462177 Q 2.0632546164772725 1.0155977559825813 2.0687588778409087 1.0155977559825813 Q 2.074795809659091 1.0155977559825813 2.0779918323863633 1.0195927843916721 Q 2.0811878551136362 1.0235878128007632 2.0811878551136362 1.0298023014371267 L 2.0785245028409087 1.0727710514371267 L 2.0811878551136362 1.1171602559825813 M 2.5004882812499996 1.2174798582553086 Q 2.5004882812499996 1.2109102559825813 2.503506747159091 1.2060274434825813 Q 2.5065252130681817 1.2011446309825813 2.513272372159091 1.2011446309825813 L 2.5455877130681817 1.2011446309825813 L 2.5455877130681817 1.0131119605280359 L 2.4383433948863633 1.2142838355280359 Q 2.436567826704545 1.2189003128007632 2.4321289062499996 1.2223626707553086 Q 2.427689985795454 1.225825028709854 2.4216530539772725 1.225825028709854 Q 2.4161487926136362 1.225825028709854 2.4117986505681817 1.222895341209854 Q 2.407448508522727 1.219965653709854 2.4056729403409087 1.216059403709854 L 2.3051757812499996 1.0106261650734905 L 2.3051757812499996 1.2011446309825813 L 2.3412198153409087 1.2011446309825813 Q 2.347966974431818 1.2011446309825813 2.3509854403409087 1.2060274434825813 Q 2.3540039062499996 1.2109102559825813 2.3540039062499996 1.2174798582553086 Q 2.3540039062499996 1.2233392332553086 2.350541548295454 1.2278669321189448 Q 2.3470791903409087 1.2323946309825813 2.340864701704545 1.2323946309825813 L 2.228826349431818 1.2323946309825813 Q 2.222611860795454 1.2323946309825813 2.2191495028409087 1.2278669321189448 Q 2.2156871448863633 1.2233392332553086 2.2156871448863633 1.2174798582553086 Q 2.2156871448863633 1.2109102559825813 2.218705610795454 1.2060274434825813 Q 2.221724076704545 1.2011446309825813 2.228471235795454 1.2011446309825813 L 2.2680664062499996 1.2011446309825813 L 2.2680664062499996 0.9593122446189449 L 2.2321999289772725 0.9593122446189449 Q 2.2254527698863633 0.9593122446189449 2.2224343039772725 0.9544294321189449 Q 2.2194158380681817 0.9495466196189449 2.2194158380681817 0.9429770173462176 Q 2.2194158380681817 0.9371176423462176 2.222878196022727 0.9325899434825813 Q 2.2263405539772725 0.9280622446189449 2.2325550426136362 0.9280622446189449 L 2.292214133522727 0.9280622446189449 Q 2.2970081676136362 0.9280622446189449 2.299760298295454 0.930903153709854 Q 2.3025124289772725 0.9337440628007632 2.3041104403409087 0.9371176423462176 L 2.4216530539772725 1.1741559946189448 L 2.5470081676136362 0.9356971878007632 Q 2.5486061789772725 0.9326787218916721 2.5514470880681817 0.9303704832553086 Q 2.554287997159091 0.9280622446189449 2.5587269176136362 0.9280622446189449 L 2.6153675426136362 0.9280622446189449 Q 2.6215820312499996 0.9280622446189449 2.625044389204545 0.9325899434825813 Q 2.628506747159091 0.9371176423462176 2.628506747159091 0.9429770173462176 Q 2.628506747159091 0.9495466196189449 2.6254882812499996 0.9544294321189449 Q 2.6224698153409087 0.9593122446189449 2.6157226562499996 0.9593122446189449 L 2.5834073153409087 0.9593122446189449 L 2.5834073153409087 1.2011446309825813 L 2.619451349431818 1.2011446309825813 Q 2.626198508522727 1.2011446309825813 2.629128196022727 1.2060274434825813 Q 2.632057883522727 1.2109102559825813 2.632057883522727 1.2174798582553086 Q 2.632057883522727 1.2233392332553086 2.6286843039772725 1.2278669321189448 Q 2.625310724431818 1.2323946309825813 2.619096235795454 1.2323946309825813 L 2.513627485795454 1.2323946309825813 Q 2.507412997159091 1.2323946309825813 2.503950639204545 1.2278669321189448 Q 2.5004882812499996 1.2233392332553086 2.5004882812499996 1.2174798582553086 L 2.5004882812499996 1.2174798582553086 M 2.844859730113636 1.1171602559825813 Q 2.844859730113636 1.1233747446189448 2.8416637073863633 1.1273697730280359 Q 2.8384676846590904 1.1313648014371267 2.8324307528409087 1.1313648014371267 Q 2.826926491477272 1.1313648014371267 2.823286576704545 1.1278136650734905 Q 2.819646661931818 1.124262528709854 2.8182262073863633 1.1192909378007632 L 2.8091708096590904 1.0862653696189448 L 2.7498668323863633 1.0862653696189448 L 2.7498668323863633 1.2011446309825813 L 2.9066495028409087 1.2011446309825813 L 2.9272460937499996 1.1425508809825813 Q 2.929731889204545 1.1370466196189448 2.9341708096590904 1.133051591209854 Q 2.938609730113636 1.1290565628007632 2.9455344460227266 1.1290565628007632 Q 2.9513938210227266 1.1290565628007632 2.9549449573863633 1.1326076991643994 Q 2.9584960937499996 1.1361588355280359 2.9584960937499996 1.1421957673462177 Q 2.9584960937499996 1.1439713355280359 2.9582297585227266 1.145746903709854 Q 2.957963423295454 1.1475224718916721 2.9574307528409087 1.1491204832553086 L 2.946244673295454 1.2185451991643994 Q 2.944469105113636 1.2249372446189448 2.9412730823863633 1.2286659378007632 Q 2.9380770596590904 1.2323946309825813 2.931685014204545 1.2323946309825813 L 2.658247514204545 1.2323946309825813 Q 2.652033025568181 1.2323946309825813 2.648570667613636 1.2278669321189448 Q 2.6451083096590904 1.2233392332553086 2.6451083096590904 1.2174798582553086 Q 2.6451083096590904 1.2109102559825813 2.648126775568181 1.2060274434825813 Q 2.651145241477272 1.2011446309825813 2.657892400568181 1.2011446309825813 L 2.7084960937499996 1.2011446309825813 L 2.7084960937499996 0.9593122446189449 L 2.6760031960227266 0.9593122446189449 Q 2.669256036931818 0.9593122446189449 2.666326349431818 0.9544294321189449 Q 2.663396661931818 0.9495466196189449 2.663396661931818 0.9429770173462176 Q 2.663396661931818 0.9371176423462176 2.666770241477272 0.9325899434825813 Q 2.6701438210227266 0.9280622446189449 2.6763583096590904 0.9280622446189449 L 2.9244051846590904 0.9280622446189449 Q 2.930797230113636 0.9280622446189449 2.9338156960227266 0.931879716209854 Q 2.936834161931818 0.9356971878007632 2.9389648437499996 0.9419116764371267 L 2.956010298295454 0.9981971878007632 Q 2.9565429687499996 1.0001503128007632 2.9568093039772725 1.0019258809825813 Q 2.957075639204545 1.0037014491643994 2.957075639204545 1.005121903709854 Q 2.957075639204545 1.010981278709854 2.953435724431818 1.0146211934825813 Q 2.9497958096590904 1.0182611082553086 2.9441139914772725 1.0182611082553086 Q 2.937544389204545 1.0182611082553086 2.9328391335227266 1.0142660798462177 Q 2.9281338778409087 1.0102710514371267 2.925825639204545 1.0047667900734905 L 2.9066495028409087 0.9593122446189449 L 2.7498668323863633 0.9593122446189449 L 2.7498668323863633 1.0606971878007632 L 2.8091708096590904 1.0606971878007632 L 2.8182262073863633 1.0276716196189448 Q 2.819646661931818 1.022700028709854 2.823286576704545 1.0191488923462177 Q 2.826926491477272 1.0155977559825813 2.8324307528409087 1.0155977559825813 Q 2.8384676846590904 1.0155977559825813 2.8416637073863633 1.0195927843916721 Q 2.844859730113636 1.0235878128007632 2.844859730113636 1.0298023014371267 L 2.8421963778409087 1.0727710514371267 L 2.844859730113636 1.1171602559825813 M 2.9793590198863633 0.9429770173462176 Q 2.9793590198863633 0.9371176423462176 2.9828213778409087 0.9325899434825813 Q 2.986283735795454 0.9280622446189449 2.992498224431818 0.9280622446189449 L 3.0747070312499996 0.9280622446189449 Q 3.0789683948863633 0.9280622446189449 3.081276633522727 0.9294826991643994 Q 3.083584872159091 0.930903153709854 3.085182883522727 0.9342767332553086 L 3.241255326704545 1.1567554264371267 L 3.241255326704545 0.9593122446189449 L 3.209295099431818 0.9593122446189449 Q 3.2025479403409087 0.9593122446189449 3.199529474431818 0.9544294321189449 Q 3.196511008522727 0.9495466196189449 3.196511008522727 0.9429770173462176 Q 3.196511008522727 0.9371176423462176 3.1999733664772725 0.9325899434825813 Q 3.203435724431818 0.9280622446189449 3.2096502130681817 0.9280622446189449 L 3.3129882812499996 0.9280622446189449 Q 3.3192027698863633 0.9280622446189449 3.322576349431818 0.9325899434825813 Q 3.3259499289772725 0.9371176423462176 3.3259499289772725 0.9429770173462176 Q 3.3259499289772725 0.9495466196189449 3.3230202414772725 0.9544294321189449 Q 3.3200905539772725 0.9593122446189449 3.3133433948863633 0.9593122446189449 L 3.2780095880681817 0.9593122446189449 L 3.2780095880681817 1.2229841196189448 Q 3.2780095880681817 1.229731278709854 3.2733043323863633 1.2343477559825813 Q 3.268599076704545 1.2389642332553086 3.262029474431818 1.2389642332553086 Q 3.2563476562499996 1.2389642332553086 3.2523526278409087 1.2362121025734905 Q 3.248357599431818 1.2334599718916721 3.245694247159091 1.2295537218916721 L 3.0649414062499996 0.973871903709854 L 3.0649414062499996 1.2011446309825813 L 3.0961914062499996 1.2011446309825813 Q 3.1029385653409087 1.2011446309825813 3.1059570312499996 1.2060274434825813 Q 3.108975497159091 1.2109102559825813 3.108975497159091 1.2174798582553086 Q 3.108975497159091 1.2233392332553086 3.105513139204545 1.2278669321189448 Q 3.1020507812499996 1.2323946309825813 3.0958362926136362 1.2323946309825813 L 2.992498224431818 1.2323946309825813 Q 2.986283735795454 1.2323946309825813 2.9828213778409087 1.2278669321189448 Q 2.9793590198863633 1.2233392332553086 2.9793590198863633 1.2174798582553086 Q 2.9793590198863633 1.2109102559825813 2.982377485795454 1.2060274434825813 Q 2.985395951704545 1.2011446309825813 2.992143110795454 1.2011446309825813 L 3.0274769176136362 1.2011446309825813 L 3.0274769176136362 0.9593122446189449 L 2.992143110795454 0.9593122446189449 Q 2.985395951704545 0.9593122446189449 2.982377485795454 0.9544294321189449 Q 2.9793590198863633 0.9495466196189449 2.9793590198863633 0.9429770173462176 L 2.9793590198863633 0.9429770173462176 M 3.3507191051136362 1.0221673582553086 Q 3.3448597301136362 1.0221673582553086 3.3417524857954546 1.0182611082553086 Q 3.3386452414772725 1.0143548582553086 3.3386452414772725 1.0079628128007632 L 3.34130859375 0.9419116764371267 Q 3.3414861505681817 0.9349869605280359 3.3437943892045454 0.9315246025734903 Q 3.346102627840909 0.9280622446189449 3.352139559659091 0.9280622446189449 L 3.6081764914772725 0.9280622446189449 Q 3.613858309659091 0.9280622446189449 3.6163441051136362 0.9316133809825813 Q 3.6188299005681817 0.9351645173462176 3.6190074573863638 0.9419116764371267 L 3.621670809659091 1.0079628128007632 Q 3.621670809659091 1.0143548582553086 3.618563565340909 1.0182611082553086 Q 3.615456321022727 1.0221673582553086 3.609596946022727 1.0221673582553086 Q 3.6033824573863633 1.0221673582553086 3.5995649857954546 1.0195040059825813 Q 3.5957475142045454 1.016840653709854 3.5950372869318183 1.0102710514371267 L 3.5895330255681817 0.9593122446189449 L 3.4989790482954546 0.9593122446189449 L 3.4989790482954546 1.2011446309825813 L 3.5460316051136362 1.2011446309825813 Q 3.5527787642045454 1.2011446309825813 3.5557084517045454 1.2060274434825813 Q 3.5586381392045454 1.2109102559825813 3.5586381392045454 1.2174798582553086 Q 3.5586381392045454 1.2233392332553086 3.555264559659091 1.2278669321189448 Q 3.5518909801136362 1.2323946309825813 3.5456764914772725 1.2323946309825813 L 3.4110884232954546 1.2323946309825813 Q 3.404873934659091 1.2323946309825813 3.4014115767045454 1.2278669321189448 Q 3.39794921875 1.2233392332553086 3.39794921875 1.2174798582553086 Q 3.39794921875 1.2109102559825813 3.400967684659091 1.2060274434825813 Q 3.4039861505681817 1.2011446309825813 3.410733309659091 1.2011446309825813 L 3.457608309659091 1.2011446309825813 L 3.457608309659091 0.9593122446189449 L 3.37060546875 0.9593122446189449 L 3.3652787642045454 1.0102710514371267 Q 3.364568536931818 1.0170182105280359 3.360751065340909 1.0195927843916721 Q 3.35693359375 1.0221673582553086 3.3507191051136362 1.0221673582553086 L 3.3507191051136362 1.0221673582553086" fill="#d56a34" fill-rule="nonzero"></path></g><g transform="matrix(1,0,0,1,0,0)"><g clip-path="url(#SvgjsClipPath1003)"><g clip-path="url(#SvgjsClipPath1002056b779f-280f-4b7f-a558-a77cdc53a11a)"><path d=" M -0.6314357214496615 -3.4735122780526946 L -1.508799226342576 -2.5960778392735833 L -1.508799226342576 -1.355302301924469 L -0.6314357214496615 -0.4779387970315545 L 0.609339815899453 -0.4779387970315545 L 1.4867033207923672 -1.355302301924469 L 1.4867033207923672 -2.5960778392735833 L 0.609339815899453 -3.4735122780526946 Z M 0.6374119013617168 -3.541289606313447 L -0.6595078069119249 -3.541289606313447 L -1.576505620717132 -2.6240789908496502 L -1.576505620717132 -1.3272302164622054 L -0.6595078069119249 -0.4101614687708022 L 0.6374119013617168 -0.4101614687708022 L 1.5544806490531204 -1.3272302164622054 L 1.5544806490531204 -2.6240789908496502 Z" fill="url(#gradient-98dd4e2e-ff01-40d3-8fa8-2b8340fa94ec_0)" transform="matrix(1,0,0,1,0,0)" fill-rule="evenodd"></path></g><g clip-path="url(#SvgjsClipPath1002056b779f-280f-4b7f-a558-a77cdc53a11a)"><path d=" M -0.5666021494660638 -3.3020473416442138 L -1.3521949390922612 -2.516454552018016 L -1.3521949390922612 -1.405363892107646 L -0.5666021494660638 -0.6197711024814483 L 0.5444175765581099 -0.6197711024814483 L 1.330010366184307 -1.405363892107646 L 1.330010366184307 -2.5163836181318198 L 0.5444175765581099 -3.301976407758017 Z M 0.57256059590657 -3.369824669904966 L -0.5946742349283274 -3.369824669904966 L -1.420025467767661 -2.544455703594083 L -1.420025467767661 -1.3772208727591861 L -0.5946742349283272 -0.5518519064483032 L 0.57256059590657 -0.5518519064483032 L 1.397929562217453 -1.3772208727591861 L 1.397929562217453 -2.544455703594083 Z" fill="url(#gradient-98dd4e2e-ff01-40d3-8fa8-2b8340fa94ec_1)" transform="matrix(1,0,0,1,0,0)" fill-rule="evenodd"></path></g><g clip-path="url(#SvgjsClipPath1002056b779f-280f-4b7f-a558-a77cdc53a11a)"><path d=" M 1.1751262256742572 -3.1470213333617707 L -1.1972043977529168 -3.1470213333617707 L -1.1972043977529168 -0.774690709934597 L 1.1751262256742572 -0.774690709934597 Z M -1.264999459485218 -3.214798661622523 L -1.264999459485218 -0.7068956482022952 L 1.2429035539350095 -0.7068956482022952 L 1.2429035539350095 -3.214798661622523 Z" fill="url(#gradient-98dd4e2e-ff01-40d3-8fa8-2b8340fa94ec_2)" transform="matrix(1,0,0,1,0,0)" fill-rule="evenodd"></path></g><g clip-path="url(#SvgjsClipPath1002056b779f-280f-4b7f-a558-a77cdc53a11a)"><path d=" M 1.6775864085471395 -1.9608471549124094 L 0 -3.638344896101803 L -1.6774977411893937 -1.9608471549124094 L 0 -0.2832607463652699 Z M 0 -3.7341943098248187 L -1.7733471549124094 -1.9608471549124094 L 0 -0.1875 L 1.7733471549124094 -1.9608471549124094 Z" fill="url(#gradient-98dd4e2e-ff01-40d3-8fa8-2b8340fa94ec_3)" transform="matrix(1,0,0,1,0,0)" fill-rule="evenodd"></path></g><path d=" M -0.7231073919938007 -1.5406327113395888 C -0.7388900940998222 -1.5406327113395888 -0.7521619117798857 -1.5460131779666415 -0.7629228450339911 -1.5567741112207472 C -0.7736837782880966 -1.5675350444748526 -0.7790642449151495 -1.580806862154916 -0.7790642449151495 -1.5965895642609376 L -0.7790642449151495 -2.3251047455638814 C -0.7790642449151495 -2.3416048432201766 -0.7736837782880966 -2.355056009787808 -0.7629228450339911 -2.365458245266777 C -0.7521619117798857 -2.3758604807457457 -0.7388900940998222 -2.38106159848523 -0.7231073919938007 -2.38106159848523 C -0.7066072943375056 -2.38106159848523 -0.6931561277698737 -2.3758604807457457 -0.682753892290905 -2.365458245266777 C -0.6723516568119363 -2.355056009787808 -0.6671505390724519 -2.3416048432201766 -0.6671505390724519 -2.3251047455638814 L -0.6671505390724519 -2.0162659611710527 L -0.16784323608195573 -2.0162659611710527 L -0.16784323608195573 -2.3251047455638814 C -0.16784323608195573 -2.3416048432201766 -0.1624627694549029 -2.355056009787808 -0.15170183620079736 -2.365458245266777 C -0.14094090294669193 -2.3758604807457457 -0.12766908526662835 -2.38106159848523 -0.11188638316060684 -2.38106159848523 C -0.09538628550431183 -2.38106159848523 -0.08211446782424836 -2.3758604807457457 -0.07207093012041643 -2.365458245266777 C -0.062027392416584615 -2.355056009787808 -0.05700562356466876 -2.3416048432201766 -0.05700562356466876 -2.3251047455638814 L -0.05700562356466876 -1.5965895642609376 C -0.05700562356466876 -1.580806862154916 -0.062027392416584615 -1.5675350444748526 -0.07207093012041643 -1.5567741112207472 C -0.08211446782424836 -1.5460131779666415 -0.09538628550431183 -1.5406327113395888 -0.11188638316060684 -1.5406327113395888 C -0.12766908526662835 -1.5406327113395888 -0.14094090294669193 -1.5460131779666415 -0.15170183620079736 -1.5567741112207472 C -0.1624627694549029 -1.5675350444748526 -0.16784323608195573 -1.580806862154916 -0.16784323608195573 -1.5965895642609376 L -0.16784323608195573 -1.9172653752332822 L -0.6671505390724519 -1.9172653752332822 L -0.6671505390724519 -1.5965895642609376 C -0.6671505390724519 -1.580806862154916 -0.6723516568119363 -1.5675350444748526 -0.682753892290905 -1.5567741112207472 C -0.6931561277698737 -1.5460131779666415 -0.7066072943375056 -1.5406327113395888 -0.7231073919938007 -1.5406327113395888 M 0.53481523011188 -1.5298717780854834 C 0.4767061905397103 -1.5298717780854834 0.4223634776064775 -1.540812060227157 0.3717870913121817 -1.562692624510505 C 0.3212107050178856 -1.5845731887938528 0.27709087867605287 -1.6150624996804852 0.23942761228668363 -1.6541605571704021 C 0.2017643458973144 -1.6932586146603188 0.17235112833609256 -1.7389925809902673 0.15118795960301834 -1.7913624561602475 C 0.13002479086994412 -1.8437323313302276 0.119443206503407 -1.9004065798018501 0.119443206503407 -1.9613852015751148 C 0.119443206503407 -2.0216464277981054 0.13002479086994412 -2.0777826296070225 0.15118795960301834 -2.1297938070018665 C 0.17235112833609256 -2.1818049843967096 0.2017643458973144 -2.2273596018390895 0.23942761228668363 -2.2664576593290064 C 0.27709087867605287 -2.305555716818923 0.3210313561303173 -2.336224376593124 0.3712490446494763 -2.3584636386516085 C 0.42146673316863525 -2.3807029007100935 0.4759887949894366 -2.3918225317393356 0.53481523011188 -2.3918225317393356 C 0.5900546874829551 -2.3918225317393356 0.6375821426885879 -2.3846485762365988 0.6773975957287783 -2.3703006652311247 C 0.717213048768969 -2.3559527542256506 0.7572078506967277 -2.3322787010666186 0.7973820015120547 -2.299278505754028 C 0.8031211659142445 -2.294974132452386 0.8076048881034552 -2.2904904102631756 0.810833168079687 -2.2858273391863966 C 0.8140614480559185 -2.281164268109617 0.8162136347067397 -2.276501197032838 0.81728972803215 -2.271838125956059 C 0.8183658213575606 -2.2671750548792797 0.818903868020266 -2.2616152393646587 0.818903868020266 -2.2551586794121956 C 0.818903868020266 -2.2415281639569953 0.8140614480559185 -2.230049835152616 0.8043766081272234 -2.2207236929990577 C 0.7946917681985288 -2.2113975508454997 0.7828547416190126 -2.206375781993584 0.7688655283886754 -2.20565838644331 C 0.7548763151583382 -2.2049409908930366 0.741783846365843 -2.2096040619698156 0.7295881220111899 -2.2196475996736473 C 0.7030444866510634 -2.2426042572824056 0.6756041068530945 -2.2601804482641112 0.647266982617283 -2.272376172618764 C 0.6189298583814717 -2.284571896973417 0.5814459408796706 -2.290669759150744 0.53481523011188 -2.290669759150744 C 0.4924888926457318 -2.290669759150744 0.4526734396055416 -2.282061012547459 0.41536887099130904 -2.2648435193408902 C 0.37806430237707644 -2.2476260261343217 0.3452434559520545 -2.2239519729752892 0.3169063317162433 -2.193821359863794 C 0.28856920748043224 -2.1636907467522986 0.26650929430951575 -2.1287177136764557 0.25072659220349447 -2.088902260636265 C 0.23494389009747296 -2.0490868075960744 0.2270525390444622 -2.006581121242358 0.2270525390444622 -1.9613852015751148 C 0.2270525390444622 -1.9154718863575977 0.23494389009747296 -1.8726075022287443 0.25072659220349447 -1.8327920491885537 C 0.26650929430951575 -1.7929765961483632 0.28856920748043224 -1.7580035630725204 0.3169063317162433 -1.7278729499610248 C 0.3452434559520545 -1.6977423368495292 0.37806430237707644 -1.6742476325780657 0.41536887099130904 -1.6573888371466337 C 0.4526734396055416 -1.6405300417152018 0.4924888926457318 -1.6321006439994856 0.53481523011188 -1.6321006439994856 C 0.5714024031758389 -1.6321006439994856 0.6060167384765454 -1.6383778550643804 0.6386582360139987 -1.6509322771941704 C 0.6712997335514519 -1.66348669932396 0.7026857888759266 -1.6808835414180974 0.7328164019874219 -1.703122803476582 C 0.7457295218923485 -1.7124489456301402 0.7584632929097066 -1.716573970044214 0.7710177150394966 -1.7154978767188036 C 0.7835721371692863 -1.714421783393393 0.7941537215358234 -1.709400014541477 0.8027624681391079 -1.7004325701630556 C 0.8113712147423922 -1.6914651257846345 0.8156755880440343 -1.679090052542413 0.8156755880440343 -1.6633073504363916 C 0.8156755880440343 -1.6561333949336547 0.8144201458310554 -1.649138788318486 0.8119092614050973 -1.6423235305908859 C 0.8093983769791395 -1.6355082728632857 0.8049146547899289 -1.629231061798391 0.7984580948374655 -1.6234918973962014 C 0.7604361306729595 -1.5919264931841584 0.7191858865322216 -1.5684317889126946 0.674707362415252 -1.55300778458181 C 0.6302288382982826 -1.5375837802509256 0.583598127530492 -1.5298717780854834 0.53481523011188 -1.5298717780854834 M 0.8156755880440343 -1.6633073504363916 L 0.7080662555029791 -1.6848292169446026 L 0.7080662555029791 -1.8774499221930916 L 0.5595653765963227 -1.8774499221930916 C 0.5437826744903016 -1.8774499221930916 0.5305108568102381 -1.8821129932698708 0.5197499235561325 -1.891439135423429 C 0.5089889903020268 -1.900765277576987 0.5036085236749741 -1.9126023041565028 0.5036085236749741 -1.9269502151619768 C 0.5036085236749741 -1.9412981261674511 0.5089889903020268 -1.9531351527469671 0.5197499235561325 -1.9624612949005253 C 0.5305108568102381 -1.9717874370540835 0.5437826744903016 -1.9764505081308625 0.5595653765963227 -1.9764505081308625 L 0.7607948284480963 -1.9764505081308625 C 0.7772949261043915 -1.9764505081308625 0.790566743784455 -1.9712493903913781 0.8006102814882867 -1.9608471549124094 C 0.8106538191921187 -1.9504449194334406 0.8156755880440343 -1.936993752865809 0.8156755880440343 -1.9204936552095138 L 0.8156755880440343 -1.6633073504363916" fill="url(#gradient-0a3497bb-44a1-4b62-a0f2-74d614874155)" transform="matrix(1,0,0,1,0,0)" fill-rule="nonzero"></path></g></g></g><defs><clipPath id="SvgjsClipPath1003"><path d=" M -1.7733471549124094 -3.7341943098248187 h 3.5466943098248187 v 3.5466943098248187 h -3.5466943098248187 Z"></path></clipPath><clipPath id="SvgjsClipPath1002056b779f-280f-4b7f-a558-a77cdc53a11a"><path d=" M -1.7733471549124094 -3.7341943098248187 L 1.7733471549124094 -3.7341943098248187 L 1.7733471549124094 -0.1875 L -1.7733471549124094 -0.1875 Z"></path></clipPath><linearGradient id="gradient-98dd4e2e-ff01-40d3-8fa8-2b8340fa94ec_0" x1="0" x2="1" y1="0" y2="1"><stop stop-color="#cc6531" offset="0"></stop><stop stop-color="#481c10" offset="1"></stop></linearGradient><linearGradient id="gradient-98dd4e2e-ff01-40d3-8fa8-2b8340fa94ec_1" x1="0" x2="1" y1="0" y2="1"><stop stop-color="#c66130" offset="0"></stop><stop stop-color="#4e1f12" offset="1"></stop></linearGradient><linearGradient id="gradient-98dd4e2e-ff01-40d3-8fa8-2b8340fa94ec_2" x1="0" x2="1" y1="0" y2="1"><stop stop-color="#bf5e2e" offset="0"></stop><stop stop-color="#552313" offset="1"></stop></linearGradient><linearGradient id="gradient-98dd4e2e-ff01-40d3-8fa8-2b8340fa94ec_3" x1="0" x2="1" y1="0" y2="1"><stop stop-color="#d56a34" offset="0"></stop><stop stop-color="#3f170e" offset="1"></stop></linearGradient><linearGradient id="gradient-0a3497bb-44a1-4b62-a0f2-74d614874155" x1="0" x2="1" y1="0" y2="1"><stop stop-color="#d56a34" offset="0"></stop><stop stop-color="#3f170e" offset="1"></stop></linearGradient></defs></svg>