<svg width="103" height="103" viewBox="0 0 103 103" fill="none" xmlns="http://www.w3.org/2000/svg">
<g id="Group">
<g id="Group_2">
<path id="Vector" d="M51.5 0.4375C23.2989 0.4375 0.4375 23.2989 0.4375 51.5C0.4375 79.701 23.2989 102.562 51.5 102.562C79.701 102.562 102.562 79.701 102.562 51.5C102.562 23.2989 79.701 0.4375 51.5 0.4375Z" fill="#004B92"/>
<path id="Vector_2" d="M58.4123 65.0342H71.6267L73.7015 51.6101H58.4096V44.2733C58.4096 38.6967 60.2318 33.7517 65.4482 33.7517H73.8305V22.0369C72.3577 21.838 69.2429 21.4026 63.3573 21.4026C51.0674 21.4026 43.8622 27.893 43.8622 42.6796V51.6101H31.2283V65.0342H43.8622V101.931C46.3643 102.307 48.8986 102.562 51.5001 102.562C53.8516 102.562 56.1468 102.347 58.4123 102.041V65.0342Z" fill="white"/>
</g>
</g>
</svg>
