<svg width="98" height="97" viewBox="0 0 98 97" fill="none" xmlns="http://www.w3.org/2000/svg">
<g id="icons_insta">
<path id="Vector" d="M69.4513 84.8547L28.618 84.8931C19.6346 84.9012 12.2785 77.6343 12.2683 68.7426L12.2295 28.326C12.2213 19.4343 19.5632 12.1532 28.5465 12.1431L69.3798 12.1047C78.3632 12.0967 85.7193 19.3636 85.7295 28.2552L85.7683 68.6719C85.7785 77.5656 78.4346 84.8467 69.4513 84.8547Z" fill="url(#paint0_radial_65_3799)"/>
<path id="Vector_2" d="M69.4513 84.8547L28.618 84.8931C19.6346 84.9012 12.2785 77.6343 12.2683 68.7426L12.2295 28.326C12.2213 19.4343 19.5632 12.1532 28.5465 12.1431L69.3798 12.1047C78.3632 12.0967 85.7193 19.3636 85.7295 28.2552L85.7683 68.6719C85.7785 77.5656 78.4346 84.8467 69.4513 84.8547Z" fill="url(#paint1_radial_65_3799)"/>
<path id="Vector_3" d="M48.9999 62.6458C41.1211 62.6458 34.7083 56.3004 34.7083 48.5C34.7083 40.6995 41.1211 34.3541 48.9999 34.3541C56.8787 34.3541 63.2916 40.6995 63.2916 48.5C63.2916 56.3004 56.8787 62.6458 48.9999 62.6458ZM48.9999 38.3958C43.371 38.3958 38.7916 42.9285 38.7916 48.5C38.7916 54.0714 43.371 58.6041 48.9999 58.6041C54.6288 58.6041 59.2083 54.0714 59.2083 48.5C59.2083 42.9285 54.6288 38.3958 48.9999 38.3958Z" fill="white"/>
<path id="Vector_4" d="M64.3125 36.375C66.0039 36.375 67.375 35.0179 67.375 33.3438C67.375 31.6696 66.0039 30.3125 64.3125 30.3125C62.6211 30.3125 61.25 31.6696 61.25 33.3438C61.25 35.0179 62.6211 36.375 64.3125 36.375Z" fill="white"/>
<path id="Vector_5" d="M61.2499 74.7708H36.7499C28.8711 74.7708 22.4583 68.4254 22.4583 60.625V36.375C22.4583 28.5745 28.8711 22.2291 36.7499 22.2291H61.2499C69.1287 22.2291 75.5416 28.5745 75.5416 36.375V60.625C75.5416 68.4254 69.1287 74.7708 61.2499 74.7708ZM36.7499 26.2708C31.121 26.2708 26.5416 30.8035 26.5416 36.375V60.625C26.5416 66.1964 31.121 70.7291 36.7499 70.7291H61.2499C66.8788 70.7291 71.4583 66.1964 71.4583 60.625V36.375C71.4583 30.8035 66.8788 26.2708 61.2499 26.2708H36.7499Z" fill="white"/>
</g>
<defs>
<radialGradient id="paint0_radial_65_3799" cx="0" cy="0" r="1" gradientUnits="userSpaceOnUse" gradientTransform="translate(39.5674 84.9457) scale(91.6688 90.7334)">
<stop stop-color="#FFDD55"/>
<stop offset="0.328" stop-color="#FF543F"/>
<stop offset="0.348" stop-color="#FC5245"/>
<stop offset="0.504" stop-color="#E64771"/>
<stop offset="0.643" stop-color="#D53E91"/>
<stop offset="0.761" stop-color="#CC39A4"/>
<stop offset="0.841" stop-color="#C837AB"/>
</radialGradient>
<radialGradient id="paint1_radial_65_3799" cx="0" cy="0" r="1" gradientUnits="userSpaceOnUse" gradientTransform="translate(24.063 11.196) scale(60.8682 40.1426)">
<stop stop-color="#4168C9"/>
<stop offset="0.999" stop-color="#4168C9" stop-opacity="0"/>
</radialGradient>
</defs>
</svg>
