<svg width="98" height="97" viewBox="0 0 98 97" fill="none" xmlns="http://www.w3.org/2000/svg">
<g id="icons_pinterest">
<path id="Vector" d="M49.0001 88.9167C71.5517 88.9167 89.8334 70.8216 89.8334 48.5C89.8334 26.1785 71.5517 8.08337 49.0001 8.08337C26.4485 8.08337 8.16675 26.1785 8.16675 48.5C8.16675 70.8216 26.4485 88.9167 49.0001 88.9167Z" fill="#E60023"/>
<path id="Vector_2" d="M49.9062 23.0701C32.2819 23.0701 22.9248 34.78 22.9248 47.5284C22.9248 53.4572 26.1129 60.8364 31.214 63.1866C31.9866 63.5427 32.4013 63.3888 32.5787 62.6473C32.7153 62.0846 33.4032 59.3394 33.7126 58.0631C33.8115 57.6559 33.7629 57.3061 33.43 56.905C31.7416 54.878 30.391 51.1534 30.391 47.6807C30.391 38.7657 37.2101 30.1399 48.8272 30.1399C58.8581 30.1399 65.8814 36.9066 65.8814 46.5832C65.8814 57.5159 60.303 65.0909 53.0456 65.0909C49.0377 65.0909 46.0365 61.8094 46.9991 57.7849C48.1535 52.9815 50.382 47.7989 50.382 44.3293C50.382 41.2265 48.7016 38.6367 45.2167 38.6367C41.1191 38.6367 37.8289 42.8307 37.8289 48.4517C37.8289 52.0286 39.0508 54.4505 39.0508 54.4505C39.0508 54.4505 35.0036 71.3881 34.2623 74.5406C33.4416 78.0211 33.7614 82.9101 34.1166 86.1066C35.0376 86.4641 35.959 86.8215 36.9112 87.1132C38.579 84.4299 41.0659 80.0288 41.9877 76.5195C42.4855 74.6277 44.5334 66.9112 44.5334 66.9112C45.8636 69.4249 49.7522 71.5529 53.8906 71.5529C66.2049 71.5529 75.0799 60.3435 75.0799 46.4137C75.0799 33.0592 64.0722 23.0701 49.9062 23.0701Z" fill="white"/>
</g>
</svg>
